<?xml version="1.0" encoding="utf-8" ?>
<svg xmlns="http://www.w3.org/2000/svg" xmlns:xlink="http://www.w3.org/1999/xlink" width="1024" height="1024">
	<path fill="#C4A120" transform="scale(2 2)" d="M237.475 492.726L160.76 492.725C127.791 492.724 96.9417 496.005 67.5285 477.41C31.7492 454.792 18.9062 421.726 18.9406 381.634L18.9489 140.46C18.9492 132.983 18.7616 125.452 19.1402 117.984C21.5664 70.1207 56.3384 28.9478 103.707 20.7966C112.882 19.2178 122.23 19.2631 131.508 19.2691L375.783 19.271C382.271 19.2702 388.874 18.9956 395.343 19.3909C440.29 22.1377 479.745 55.0783 490.179 98.897C494.493 117.014 493.526 135.76 493.526 154.238L493.513 253.138C493.511 260.359 493.971 267.954 493.522 275.127L493.529 379.183C493.533 389.743 493.793 400.276 491.422 410.643C480.23 459.579 437.652 492.492 388.206 492.73L256.096 492.728C249.897 492.73 243.669 492.896 237.475 492.726Z"/>
	<path fill="#4F9203" transform="scale(2 2)" d="M478.779 234.375C483.83 239.308 489.135 244.339 493.522 249.87C493.708 258.239 492.985 266.799 493.522 275.127L493.529 379.183C493.533 389.743 493.793 400.276 491.422 410.643C480.23 459.579 437.652 492.492 388.206 492.73L256.096 492.728C249.897 492.73 243.669 492.896 237.475 492.726C235.517 489.229 227.33 481.79 224.124 478.514L368.182 478.518C382.072 478.521 396.343 478.984 409.944 475.632C441.16 467.937 468.348 442.698 476.053 411.167C479.229 398.167 478.79 385.407 478.783 372.146L478.779 234.375Z"/>
	<path fill="#E8C73A" transform="scale(2 2)" d="M224.124 478.514C218.374 479.451 202.898 478.503 196.39 478.504L146.318 478.522C132.983 478.525 119.328 479.304 106.184 476.682C68.2603 469.115 38.825 438.335 34.1108 399.978C33.3373 393.684 33.4904 387.377 33.4909 381.049L33.4899 135.907C33.4895 124.961 33.1469 114.168 35.3438 103.377C42.5453 68.0042 73.0493 38.2525 109.184 33.8624C115.17 33.1351 121.238 33.3056 127.256 33.3069L372.583 33.3115C383.926 33.3106 395.351 32.9511 406.521 35.2799C442.525 42.7866 470.66 72.1057 477.301 108.071C479.704 121.086 478.782 134.893 478.782 148.082L478.791 226.217C478.8 228.78 479.293 231.896 478.779 234.375C471.749 225.976 463.286 218.591 455.643 210.728C433.695 188.15 411.205 166.077 388.924 143.827L366.398 121.251C364.716 119.567 362.826 115.166 362.099 118.795C357.408 130.979 344.315 130.193 333.777 126.198C324.436 124.543 313.844 116.905 303.615 114.286C288.577 110.436 267.424 115.496 256.658 127.278C255.42 131.849 255.871 146.547 256.658 151.253C256.486 152.338 256.293 153.385 255.994 154.444C243.225 172.475 227.779 173.731 215.703 186.934C204.696 197.311 203.221 212.332 205.722 226.378C201.223 221.28 198.07 205.173 197.232 198.49C197.179 176.53 199.322 170.02 212.575 153.791C198.504 152.935 191.815 152.845 177.754 146.821C173.929 145.182 170.371 142.618 166.413 141.38L166.044 141.269C160.66 143.297 155.684 147.646 151.269 151.287C102.062 191.863 80.0333 257.798 96.0605 319.899C104.727 353.48 126.953 388.069 154.817 409.345C156.502 412.546 169.456 425.071 172.582 428.175L210.914 465.651C215.295 469.926 219.477 474.536 224.124 478.514Z"/>
	<path fill="#407A01" transform="scale(2 2)" d="M249.558 120.896C245.061 105.981 248.511 75.0749 261.901 65.487C268.362 60.861 275.018 63.4506 279.332 69.4873C281.554 80.0933 276.091 84.6681 270.624 92.5855C261.628 105.615 261.291 113.696 255.994 127.278C253.602 125.571 252.143 122.451 249.558 120.896Z"/>
	<path fill="#C4A120" transform="scale(2 2)" d="M279.332 69.4873C282.586 72.4111 285.561 75.6766 288.645 78.781L321.843 112.499C325.402 116.15 330.569 120.834 333.148 125.164L333.777 126.198C324.436 124.543 313.844 116.905 303.615 114.286C288.577 110.436 267.424 115.496 256.658 127.278L255.994 127.278C261.291 113.696 261.628 105.615 270.624 92.5855C276.091 84.6681 281.554 80.0933 279.332 69.4873Z"/>
	<path fill="#4F9203" transform="scale(2 2)" d="M146.135 117.536C169.331 140.009 178.767 124.732 203.75 115.679C221.407 109.28 233.991 113.678 249.558 120.896C252.143 122.451 253.602 125.571 255.994 127.278L256.658 127.278C255.42 131.849 255.871 146.547 256.658 151.253C256.486 152.338 256.293 153.385 255.994 154.444C243.225 172.475 227.779 173.731 215.703 186.934C204.696 197.311 203.221 212.332 205.722 226.378C201.223 221.28 198.07 205.173 197.232 198.49C197.179 176.53 199.322 170.02 212.575 153.791C198.504 152.935 191.815 152.845 177.754 146.821C173.929 145.182 170.371 142.618 166.413 141.38L166.044 141.269C158.863 133.205 150.122 130.175 146.135 117.536Z"/>
	<path fill="#E61B00" transform="scale(2 2)" d="M256.658 127.278C267.424 115.496 288.577 110.436 303.615 114.286C313.844 116.905 324.436 124.543 333.777 126.198C344.315 130.193 357.408 130.979 362.099 118.795C365.397 125.821 349.109 137.588 344.855 141.269L345.257 141.578C351.466 146.323 357.12 149.335 363.391 154.745C429.093 211.429 440.662 309.929 387.884 379.427C357.191 419.844 306.978 445.389 255.994 444.255C226.491 444.724 196.354 435.348 171.221 420.349C165.536 416.956 160.339 412.961 154.817 409.345C126.953 388.069 104.727 353.48 96.0605 319.899C80.0333 257.798 102.062 191.863 151.269 151.287C155.684 147.646 160.66 143.297 166.044 141.269L166.413 141.38C170.371 142.618 173.929 145.182 177.754 146.821C191.815 152.845 198.504 152.935 212.575 153.791C199.322 170.02 197.179 176.53 197.232 198.49C198.07 205.173 201.223 221.28 205.722 226.378C203.221 212.332 204.696 197.311 215.703 186.934C227.779 173.731 243.225 172.475 255.994 154.444C256.293 153.385 256.486 152.338 256.658 151.253C255.871 146.547 255.42 131.849 256.658 127.278Z"/>
	<path fill="#B80C00" transform="scale(2 2)" d="M307.686 163.916C312.918 163.202 329.055 174.042 333.533 177.451C417.063 241.037 399.332 367.247 299.005 403.258C287.008 407.565 268.776 411.905 255.994 410.284L255.994 381.785L255.994 381.785C256.271 371.735 255.994 361.586 255.994 351.524C259.095 351.159 262.395 351.557 265.528 351.524L265.51 372.198C265.507 375.319 265.219 378.7 265.528 381.785C309.519 376.161 349.405 344.547 356.721 299.2C357.291 295.667 357.593 292.056 358.526 288.596L333.777 288.596L333.777 277.416L358.526 277.416C355.945 246.934 345.622 223.178 321.095 203.145C318.368 200.917 315.163 199.29 312.295 197.238C311.683 183.787 312.958 178.072 307.686 163.916Z"/>
	<path fill="#ED4316" transform="scale(2 2)" d="M215.703 186.934C220.324 187.103 228.875 183.939 233.793 182.823C241.024 181.182 248.584 180.535 255.994 180.72L255.994 215.349L256.031 265.652C256.042 267.312 256.223 269.159 255.994 270.799L255.994 270.799C260.488 271.321 263.498 272.544 265.528 276.668C266.007 278.351 266.394 280.086 266.924 281.75C264.57 286.042 262.653 289.694 257.567 291.019L256.658 291.019L255.994 291.019C255.464 311.158 256.342 331.374 255.994 351.524L255.994 351.524C255.994 361.586 256.271 371.735 255.994 381.785C252.613 381.734 249.178 381.695 245.822 381.259C240.511 380.479 235.162 379.72 229.973 378.315C188.479 367.076 159.469 330.784 154.817 288.596C155.051 283.733 154.825 278.748 154.817 273.873C157.873 242.369 170.698 217.11 197.232 198.49C198.07 205.173 201.223 221.28 205.722 226.378C203.221 212.332 204.696 197.311 215.703 186.934Z"/>
	<path fill="#4F9203" transform="scale(2 2)" d="M255.994 270.799L255.994 270.799C260.488 271.321 263.498 272.544 265.528 276.668C266.007 278.351 266.394 280.086 266.924 281.75C264.57 286.042 262.653 289.694 257.567 291.019L256.658 291.019L255.994 291.019C247.125 290.583 245.275 284.446 245.822 276.668C248.966 273.437 251.199 271.073 255.994 270.799Z"/>
	<path fill="#E61B00" transform="scale(2 2)" d="M245.822 215.349C249.203 215.447 252.61 215.354 255.994 215.349L256.031 265.652C256.042 267.312 256.223 269.159 255.994 270.799C251.199 271.073 248.966 273.437 245.822 276.668C246.165 270.036 245.827 263.221 245.825 256.571L245.822 215.349Z"/>
	<path fill="#E61B00" transform="scale(2 2)" d="M256.658 127.278C267.424 115.496 288.577 110.436 303.615 114.286C313.844 116.905 324.436 124.543 333.777 126.198C344.315 130.193 357.408 130.979 362.099 118.795C365.397 125.821 349.109 137.588 344.855 141.269C330.211 152.195 319.7 156.077 301.348 153.791C303.606 157.086 305.76 160.415 307.686 163.916C312.958 178.072 311.683 183.787 312.295 197.238C315.163 199.29 318.368 200.917 321.095 203.145C345.622 223.178 355.945 246.934 358.526 277.416L333.777 277.416L333.777 288.596L358.526 288.596C357.593 292.056 357.291 295.667 356.721 299.2C349.405 344.547 309.519 376.161 265.528 381.785C265.219 378.7 265.507 375.319 265.51 372.198L265.528 351.524C262.395 351.557 259.095 351.159 255.994 351.524L255.994 351.524C256.342 331.374 255.464 311.158 255.994 291.019L256.658 291.019L257.567 291.019C262.653 289.694 264.57 286.042 266.924 281.75C266.394 280.086 266.007 278.351 265.528 276.668C263.498 272.544 260.488 271.321 255.994 270.799L255.994 270.799C256.223 269.159 256.042 267.312 256.031 265.652L255.994 215.349L255.994 180.72C248.584 180.535 241.024 181.182 233.793 182.823C228.875 183.939 220.324 187.103 215.703 186.934C227.779 173.731 243.225 172.475 255.994 154.444C256.293 153.385 256.486 152.338 256.658 151.253C255.871 146.547 255.42 131.849 256.658 127.278Z"/>
	<path fill="#B80C00" transform="scale(2 2)" d="M256.658 151.253C257.956 153.722 258.463 156.572 260.018 158.899C266.579 168.725 284.919 174.797 294.023 185.649C289.953 185.764 281.39 182.82 276.93 182.004C270.058 180.747 262.958 180.696 255.994 180.72C256.117 171.971 256.062 163.194 255.994 154.444C256.293 153.385 256.486 152.338 256.658 151.253Z"/>
	<path fill="#B80C00" transform="scale(2 2)" d="M255.994 215.349C258.51 215.297 261.036 215.193 263.55 215.349C266.083 219.75 265.556 223.316 265.549 228.29L265.542 265.731C265.546 269.337 265.758 273.076 265.528 276.668C263.498 272.544 260.488 271.321 255.994 270.799L255.994 270.799C256.223 269.159 256.042 267.312 256.031 265.652L255.994 215.349Z"/>
	<path fill="#407A01" transform="scale(2 2)" d="M266.924 281.75C277.445 294.293 294.517 311.244 306.53 321.872C303.716 325.095 300.597 328.114 297.514 331.08C288.501 321.833 278.951 313.07 269.795 303.955C265.597 299.775 261.902 295.034 257.567 291.019C262.653 289.694 264.57 286.042 266.924 281.75Z"/>
	<path fill="#407A01" transform="scale(2 2)" d="M256.658 127.278C267.424 115.496 288.577 110.436 303.615 114.286C313.844 116.905 324.436 124.543 333.777 126.198C344.315 130.193 357.408 130.979 362.099 118.795C365.397 125.821 349.109 137.588 344.855 141.269C330.211 152.195 319.7 156.077 301.348 153.791C303.606 157.086 305.76 160.415 307.686 163.916C312.958 178.072 311.683 183.787 312.295 197.238C311.257 205.617 308.745 216.131 303.915 223.086C304.287 210.699 303.278 194.794 294.023 185.649C284.919 174.797 266.579 168.725 260.018 158.899C258.463 156.572 257.956 153.722 256.658 151.253C255.871 146.547 255.42 131.849 256.658 127.278Z"/>
</svg>
