<?xml version="1.0" encoding="utf-8" ?>
<svg xmlns="http://www.w3.org/2000/svg" xmlns:xlink="http://www.w3.org/1999/xlink" width="1024" height="1024">
	<path fill="#4FB3F4" transform="scale(2 2)" d="M156.371 88.2436C160.488 88.0109 164.736 88.2239 168.863 88.2313L325.709 88.241C337.613 88.2372 350.555 87.3787 362.258 89.4559C394.17 95.1203 419.834 123.039 422.792 155.333C424.201 170.721 423.483 186.464 423.481 201.921L423.483 332.306C423.486 342.685 424.303 353.933 422.604 364.143C417.153 396.91 388.24 419.383 355.948 422.291L174.85 422.298C166.053 422.304 156.885 422.842 148.174 421.498C118.815 416.968 94.4109 393.143 89.778 363.635C88.8826 357.932 89.0692 351.968 89.0653 346.205L89.0483 165.422C89.0392 160.128 88.865 154.797 89.5967 149.54C94.6242 113.414 122.515 93.41 156.371 88.2436ZM235.282 148.309L235.282 157.266C235.281 158.65 235.251 160.04 235.282 161.424C249.037 160.12 263.419 158.106 277.035 161.424C277.024 157.24 277.558 152.393 277.035 148.309C287.17 145.045 289.481 133.339 286.231 124.143C281.907 111.907 266.198 114.906 256.11 114.944C246.199 114.981 231.19 111.975 226.452 123.498C222.825 132.321 225.446 144.432 235.282 148.309Z"/>
	<path fill="#84D4F7" transform="scale(2 2)" d="M401.36 175.308C408.649 176.657 407.798 181.421 407.779 187.623L407.751 199.464C406.442 200.734 405.136 201.534 403.467 202.225C401.18 202.345 398.908 201.81 397.896 199.478C396.368 195.952 394.757 178.235 401.36 175.308Z"/>
	<path fill="#84D4F7" transform="scale(2 2)" d="M304.393 100.028C316.927 98.7954 352.074 99.6008 361.745 102.454C378.586 107.423 392.549 118.75 400.898 134.165C404.305 140.455 408.981 154.391 406.855 161.424C405.496 162.894 404.326 163.473 402.377 163.885C396.646 163.253 397.117 156.586 396.346 152.237C392.262 129.208 372.06 112.544 349.107 110.538C344.156 110.105 339.132 110.263 334.165 110.265L311.996 110.256C305.807 110.283 300.774 112.533 298.555 105.63C299.383 101.958 300.4 100.321 304.393 100.028Z"/>
	<path fill="#2B7899" transform="scale(2 2)" d="M235.282 148.309C225.446 144.432 222.825 132.321 226.452 123.498C231.19 111.975 246.199 114.981 256.11 114.944C266.198 114.906 281.907 111.907 286.231 124.143C289.481 133.339 287.17 145.045 277.035 148.309C277.558 152.393 277.024 157.24 277.035 161.424C263.419 158.106 249.037 160.12 235.282 161.424C235.251 160.04 235.281 158.65 235.282 157.266L235.282 148.309ZM236.99 125.968C236.95 129.087 236.896 132.203 236.99 135.322C238.065 136.659 239.448 138.077 240.862 139.054C246.944 129.824 265.269 131.153 271.619 139.054C273.264 138.034 274.688 136.734 276 135.322C276.232 132.254 276.032 129.051 276 125.968L236.99 125.968Z"/>
	<path fill="#2A73AF" transform="scale(2 2)" d="M240.862 139.054C246.944 129.824 265.269 131.153 271.619 139.054C271.702 140.588 276.003 147.636 277.035 148.309C277.558 152.393 277.024 157.24 277.035 161.424C263.419 158.106 249.037 160.12 235.282 161.424C235.251 160.04 235.281 158.65 235.282 157.266C236.481 153.75 235.362 149.9 236.703 146.239C237.45 144.199 240.771 140.74 240.862 139.054Z"/>
	<path fill="#F00C02" transform="scale(2 2)" d="M354.935 345.063C353.553 347.698 351.508 350.233 349.669 352.575C319.968 390.398 267.428 405.668 221.371 392.655C191.547 384.229 165.741 362.17 150.739 335.332C123.554 286.701 136.063 226.631 177.12 190.281C182.2 185.784 187.722 181.373 193.668 178.071C192.452 180.022 190.077 180.399 188.6 182.029C189.144 185.686 192.567 181.206 193.72 180.565C193.721 181.56 189.495 184.742 188.696 185.546C116.69 257.924 166.188 383.285 267.92 383.306C294.644 383.311 326.524 372.708 345.627 353.636C348.261 351.006 351.442 346.381 354.935 345.063Z"/>
	<path fill="#F3493E" transform="scale(2 2)" d="M235.282 161.424C249.037 160.12 263.419 158.106 277.035 161.424C284.002 163.528 290.635 164.628 297.639 167.251C366.64 193.09 397.216 278.089 357.464 341.347C356.793 342.416 355.877 344.265 354.935 345.063C351.442 346.381 348.261 351.006 345.627 353.636C326.524 372.708 294.644 383.311 267.92 383.306C166.188 383.285 116.69 257.924 188.696 185.546C189.495 184.742 193.721 181.56 193.72 180.565C192.567 181.206 189.144 185.686 188.6 182.029C190.077 180.399 192.452 180.022 193.668 178.071C198.562 171.894 225.283 164.439 235.282 161.424Z"/>
	<path fill="#FEFEFE" transform="scale(2 2)" d="M265.725 190.259C268.8 190.221 271.642 190.582 274.657 191.187C308.964 198.07 334.548 225.115 342.1 258.654C343.36 264.25 344.462 268.014 338.812 271.247C331.307 273.054 331.454 261.623 330.376 257.298C324.044 231.9 303.855 210.625 278.646 203.438C274.371 202.219 270.113 202.107 265.89 201.057C259.639 199.502 260.791 192.536 265.725 190.259Z"/>
	<path fill="#F96655" transform="scale(2 2)" d="M253.879 175.308C277.452 175.132 299.739 180.219 318.769 195.161C341.714 213.178 356.543 235.957 360.028 265.318C360.37 268.201 361.58 277.481 359.376 279.513C357.818 280.95 353.797 280.47 352.955 278.418C351.9 275.847 352.07 270.226 351.701 267.118C348.927 243.726 340.207 227.873 324.425 211.431C291.906 175.032 226.46 175.934 192.32 211.059C190.969 212.449 189.812 214.096 188.419 215.422C184.399 219.248 177.603 213.896 183.485 207.358C202.07 186.698 226.743 176.733 253.879 175.308Z"/>
	<path fill="#FDBD40" transform="scale(2 2)" d="M252.649 215.357C266.731 213.552 284.146 220.096 295.039 228.789C341.521 265.882 320.661 337.285 260.812 343.258C243.644 343.872 227.675 338.896 214.35 327.858C170.276 291.347 194.083 220.204 252.649 215.357Z"/>
	<path fill="#F00C02" transform="scale(2 2)" d="M244.313 292.477C240.381 295.053 227.618 302.236 223.439 303.745C219.862 305.037 215.18 302.941 216.132 298.504C217.174 293.648 233.372 287.496 238.264 284.203L238.545 284.012C239.927 287.345 241.308 290.282 244.313 292.477Z"/>
	<path fill="#22525C" transform="scale(2 2)" d="M249.798 263.711L249.778 240.583C249.776 236.806 249.334 232.349 250.078 228.65C251.324 222.456 261.08 222.936 261.927 229.14C262.455 233.003 262.103 237.292 262.095 241.206L262.068 263.711C257.725 262.568 254.119 262.141 249.798 263.711Z"/>
	<path fill="#FEFEFE" transform="scale(2 2)" d="M249.798 263.711C254.119 262.141 257.725 262.568 262.068 263.711C285.697 275.751 265.109 308.363 244.313 292.477C241.308 290.282 239.927 287.345 238.545 284.012C236.871 275.063 241.331 267.191 249.798 263.711Z"/>
</svg>
