<?xml version="1.0" encoding="utf-8" ?>
<svg xmlns="http://www.w3.org/2000/svg" xmlns:xlink="http://www.w3.org/1999/xlink" width="1024" height="1024">
	<path fill="#E8C73A" transform="scale(2 2)" d="M272.24 492.989C264.068 493.871 252.341 492.982 243.763 492.981L140.921 492.998C104.051 493.017 77.559 492.239 49.2675 464.237C26.6106 441.812 18.4076 416.237 18.2731 384.825L18.2677 144.248C18.2521 106.224 18.3773 77.9506 47.6864 48.4664C69.6591 26.3625 94.7137 19.3037 124.679 19.2543L362.154 19.2582C380.313 19.2533 398.404 18.3441 416.236 22.514C458.919 32.4952 489.477 69.8491 493.231 113.166C493.965 121.624 493.728 130.181 493.723 138.664L493.719 259.633C491.543 258.374 480.995 246.933 478.756 244.633L354.417 120.054C351.404 117.049 348.216 114.228 345.304 111.12C345.414 112.993 345.255 114.876 345.304 116.754C344.713 132.466 334.871 141.187 321.137 146.355C318.255 144.246 314.571 139.682 311.818 137.029C298.502 124.195 286.15 110.233 272.24 98.0453C271.151 96.6321 269.885 95.4291 268.578 94.2212C255.254 117.161 250.164 125.557 250.727 154.779C249.722 155.34 248.742 155.861 247.859 156.608C231.373 150.819 224.691 151.495 207.766 151.291C211.5 148.759 212.854 148.54 216.942 147.74C203.966 147.85 202.59 147.723 190.836 141.971C192.303 145.344 199.836 150.654 202.959 153.314C200.716 154.262 198.512 155.227 196.495 156.608C194.388 155.157 192.229 154.198 189.835 153.314C129.663 180.998 100.685 247.985 115.995 311.774C122.984 340.898 138.844 366.514 160.668 386.913C162.016 388.174 163.594 389.403 164.824 390.767C168.178 395.17 172.482 398.618 176.48 402.407L191.771 417.146C211.484 435.999 231.093 455.008 251.11 473.538L266.36 487.505C268.007 489.003 271.143 491.24 272.24 492.989Z"/>
	<path fill="#407A01" transform="scale(2 2)" d="M164.824 108.769C168.911 121.839 180.395 133.575 190.836 141.971C192.303 145.344 199.836 150.654 202.959 153.314C200.716 154.262 198.512 155.227 196.495 156.608C194.388 155.157 192.229 154.198 189.835 153.314C173.666 143.458 164.316 128.067 164.824 108.769Z"/>
	<defs>
		<linearGradient id="gradient_0" gradientUnits="userSpaceOnUse" x1="204.86275" y1="141.50049" x2="275.48779" y2="114.45892">
			<stop offset="0" stop-color="#4B8100"/>
			<stop offset="1" stop-color="#6BA403"/>
		</linearGradient>
	</defs>
	<path fill="url(#gradient_0)" transform="scale(2 2)" d="M245.931 150.638C241.646 135.149 238.792 110.082 248.48 97.0523C253.559 90.2223 261.747 89.0382 268.578 94.2212C255.254 117.161 250.164 125.557 250.727 154.779C249.722 155.34 248.742 155.861 247.859 156.608C231.373 150.819 224.691 151.495 207.766 151.291C211.5 148.759 212.854 148.54 216.942 147.74C227.994 147.641 235.132 148.832 245.931 150.638Z"/>
	<path fill="#ED4316" transform="scale(2 2)" d="M250.727 154.779C250.164 125.557 255.254 117.161 268.578 94.2212C269.885 95.4291 271.151 96.6321 272.24 98.0453C286.15 110.233 298.502 124.195 311.818 137.029C314.571 139.682 318.255 144.246 321.137 146.355C334.871 141.187 344.713 132.466 345.304 116.754C345.255 114.876 345.414 112.993 345.304 111.12C348.216 114.228 351.404 117.049 354.417 120.054L478.756 244.633C480.995 246.933 491.543 258.374 493.719 259.633L493.723 378.654C493.728 387.01 494.033 395.464 493.195 403.786C489.036 445.113 457.695 480.041 417.59 489.961C404.583 493.178 391.613 492.995 378.326 492.995L276.125 493.121C274.831 493.119 273.532 493.065 272.24 492.989C271.143 491.24 268.007 489.003 266.36 487.505L251.11 473.538C231.093 455.008 211.484 435.999 191.771 417.146L176.48 402.407C172.482 398.618 168.178 395.17 164.824 390.767C163.594 389.403 162.016 388.174 160.668 386.913C138.844 366.514 122.984 340.898 115.995 311.774C100.685 247.985 129.663 180.998 189.835 153.314C192.229 154.198 194.388 155.157 196.495 156.608C198.512 155.227 200.716 154.262 202.959 153.314C199.836 150.654 192.303 145.344 190.836 141.971C202.59 147.723 203.966 147.85 216.942 147.74C212.854 148.54 211.5 148.759 207.766 151.291C224.691 151.495 231.373 150.819 247.859 156.608C248.742 155.861 249.722 155.34 250.727 154.779Z"/>
	<path fill="#B80C00" transform="scale(2 2)" d="M255.733 183.145C261.11 187.522 265.622 193.031 270.941 197.557C266.695 198.249 260.474 196.496 255.733 196.588C255.399 192.264 255.053 187.443 255.733 183.145Z"/>
	<path fill="#B80C00" transform="scale(2 2)" d="M255.733 339.33C263.723 341.031 265.845 365.765 255.733 367.14C255.488 357.903 255.67 348.575 255.733 339.33L255.733 339.33Z"/>
	<path fill="#B80C00" transform="scale(2 2)" d="M309.314 237.56C312.699 237.798 315.127 240.957 313.635 244.13C311.522 248.622 304.227 253.021 299.642 254.665C285.415 256.884 298.277 239.06 309.314 237.56Z"/>
	<path fill="#B80C00" transform="scale(2 2)" d="M321.137 288.759C325.044 288.18 329.037 288.312 332.421 290.464C333.141 291.718 333.503 292.864 333.833 294.256C331.997 300.243 326.367 299.305 321.137 299.233C317.899 298.946 311.976 299.059 309.456 296.873C300.695 289.275 317.541 288.743 321.137 288.759Z"/>
	<path fill="#B80C00" transform="scale(2 2)" d="M294.586 327.73C301.312 328.032 310.768 337.618 313.75 343.091C312.827 345.385 311.322 347.905 309.314 349.39C304.439 349.296 283.316 333.066 294.586 327.73Z"/>
	<path fill="#4F9203" transform="scale(2 2)" d="M190.836 141.971C202.59 147.723 203.966 147.85 216.942 147.74C212.854 148.54 211.5 148.759 207.766 151.291C224.691 151.495 231.373 150.819 247.859 156.608C248.742 155.861 249.722 155.34 250.727 154.779C252.937 153.295 255.126 152.267 257.595 151.291C253.091 157.058 250.432 164.026 246.363 170.117C233.507 189.366 222.831 195.487 217.926 219.758C217.379 222.462 217.251 225.637 216.249 228.186C214.756 219.921 214.501 212.075 214.535 203.701C216.475 193.007 218.649 182.986 225.844 174.398C207.803 172.535 182.573 174.976 172.425 192.368C173.227 188.79 174.252 185.132 175.778 181.782C179 168.022 187.06 163.849 196.495 156.608C198.512 155.227 200.716 154.262 202.959 153.314C199.836 150.654 192.303 145.344 190.836 141.971Z"/>
	<path fill="#407A01" transform="scale(2 2)" d="M175.778 181.782C177.141 181.132 178.172 179.484 179.248 178.421C194.612 163.242 216.763 162.806 237.039 162.863C232.652 166.689 229.498 169.892 225.844 174.398C207.803 172.535 182.573 174.976 172.425 192.368C173.227 188.79 174.252 185.132 175.778 181.782Z"/>
	<path fill="#407A01" transform="scale(2 2)" d="M250.727 154.779C250.164 125.557 255.254 117.161 268.578 94.2212C269.885 95.4291 271.151 96.6321 272.24 98.0453C286.15 110.233 298.502 124.195 311.818 137.029C314.571 139.682 318.255 144.246 321.137 146.355C334.871 141.187 344.713 132.466 345.304 116.754C346.791 119.538 345.859 129.763 344.901 132.962C342.069 142.424 335.194 149.631 326.991 154.779C324.686 155.956 313.753 159.299 313.75 159.302C325.49 167.333 340.363 176.17 346.871 189.179C341.41 185.498 336.387 182.206 330.216 179.747C319.171 175.348 292.097 171.072 279.59 171.972C289.778 186.517 290.383 189.412 293.274 205.542C293.34 209.242 293.389 212.746 292.718 216.405C294.466 224.249 289.942 237.108 290.882 243.593L290.84 243.642L290.631 243.081L291.016 243.047L291.087 242.593L290.592 242.47C287.753 221.809 291.825 214.07 270.941 197.557C265.622 193.031 261.11 187.522 255.733 183.145L255.173 181.782C252.54 187.353 249.039 192.209 244.714 196.588C233.318 208.892 221.673 214.198 216.942 233.036C216.617 231.412 216.364 229.839 216.249 228.186C217.251 225.637 217.379 222.462 217.926 219.758C222.831 195.487 233.507 189.366 246.363 170.117C250.432 164.026 253.091 157.058 257.595 151.291C255.126 152.267 252.937 153.295 250.727 154.779Z"/>
	<path fill="#C4A120" transform="scale(2 2)" d="M272.24 98.0453C286.15 110.233 298.502 124.195 311.818 137.029C314.571 139.682 318.255 144.246 321.137 146.355C316.671 148.892 310.863 149.239 305.853 149.824C302.502 149.882 299.375 149.392 296.001 149.824C279.484 147.503 273.08 148.489 257.595 151.291C266.217 129.688 271.615 121.341 272.24 98.0453Z"/>
	<path fill="#B80C00" transform="scale(2 2)" d="M313.75 159.302C313.753 159.299 324.686 155.956 326.991 154.779L327.305 155.001C330.213 157.032 333.479 158.575 336.527 160.391C382.768 187.944 406.815 244.267 399.719 296.986C390.302 366.945 325.994 421.842 255.733 420.994L255.733 387.289C353.371 387.574 391.255 260.338 302.678 210.339C299.755 208.689 296.451 206.571 293.274 205.542C290.383 189.412 289.778 186.517 279.59 171.972C292.097 171.072 319.171 175.348 330.216 179.747C336.387 182.206 341.41 185.498 346.871 189.179C340.363 176.17 325.49 167.333 313.75 159.302Z"/>
	<path fill="#C4A120" transform="scale(2 2)" d="M345.304 111.12C348.216 114.228 351.404 117.049 354.417 120.054L478.756 244.633C480.995 246.933 491.543 258.374 493.719 259.633L493.723 378.654C493.728 387.01 494.033 395.464 493.195 403.786C489.036 445.113 457.695 480.041 417.59 489.961C404.583 493.178 391.613 492.995 378.326 492.995L276.125 493.121C274.831 493.119 273.532 493.065 272.24 492.989C271.143 491.24 268.007 489.003 266.36 487.505L251.11 473.538C231.093 455.008 211.484 435.999 191.771 417.146L176.48 402.407C172.482 398.618 168.178 395.17 164.824 390.767C167.736 391.875 170.138 394.098 172.666 395.859C195.03 411.438 227.925 422.784 255.733 420.994C325.994 421.842 390.302 366.945 399.719 296.986C406.815 244.267 382.768 187.944 336.527 160.391C333.479 158.575 330.213 157.032 327.305 155.001L326.991 154.779C335.194 149.631 342.069 142.424 344.901 132.962C345.859 129.763 346.791 119.538 345.304 116.754C345.255 114.876 345.414 112.993 345.304 111.12Z"/>
</svg>
