<?xml version="1.0" encoding="utf-8" ?>
<svg xmlns="http://www.w3.org/2000/svg" xmlns:xlink="http://www.w3.org/1999/xlink" width="1024" height="1024">
	<path fill="#1B317C" transform="scale(2 2)" d="M227.222 95.5457C227.259 73.9133 229.725 72.1027 251.188 72.0933C274.768 72.0829 285.241 66.6395 285.123 95.9623C284.449 104.24 282.918 107.121 274.01 107.211L249.488 107.22C238.576 107.211 227.221 110.478 227.222 95.5457Z"/>
	<path fill="#F7F0F4" transform="scale(2 2)" d="M240.203 81.2566L261.045 81.2337C277.667 81.2297 275.868 80.0971 275.756 97.959L272.07 97.959L236.221 97.959L236.221 85.0076C237.174 83.029 238.163 82.0814 240.203 81.2566Z"/>
	<path fill="#148CEC" transform="scale(2 2)" d="M82.3725 362.756C82.6346 362.312 82.8043 361.988 82.7887 361.448L83.0966 361.279C86.5594 367.394 87.4701 374.892 90.6504 381.266C100.671 407.309 131.333 427.281 158.406 430.026C169.289 431.13 180.787 430.504 191.754 430.503L338.53 430.504C367.055 430.524 386.007 425.916 407.462 404.482C410.522 401.425 413.741 398.007 415.823 394.19C422.166 384.869 425.904 373.846 428.697 363.027C429.271 362.598 429.263 362.665 429.985 362.756C427.994 394.675 404.781 423.933 374.792 434.479C361.978 438.985 349.094 439.442 335.723 439.439L171.584 439.44C166.908 439.45 162.243 439.549 157.583 439.09C121.666 435.553 92.7663 407.219 84.7917 372.415C84.0834 369.324 83.5542 366.106 82.5005 363.114L82.3725 362.756Z"/>
	<defs>
		<linearGradient id="gradient_0" gradientUnits="userSpaceOnUse" x1="257.48206" y1="114.84084" x2="254.24208" y2="431.18451">
			<stop offset="0" stop-color="#FF2A18"/>
			<stop offset="1" stop-color="#53BEFF"/>
		</linearGradient>
	</defs>
	<path fill="url(#gradient_0)" transform="scale(2 2)" d="M81.677 207.819C81.669 197.285 81.3121 186.623 81.784 176.104C83.5337 137.093 115.924 101.113 154.982 96.5684C166.139 95.2702 178.606 95.9521 189.928 95.96L213.464 95.9532C217.964 95.9372 222.44 95.7423 226.937 95.9578L227.222 95.5457C227.221 110.478 238.576 107.211 249.488 107.22L274.01 107.211C282.918 107.121 284.449 104.24 285.123 95.9623L327.246 95.9599C336.188 95.9603 345.413 95.5078 354.307 96.4264C401.489 101.299 430.021 140.521 429.996 185.901L429.985 216.29L429.981 348.894C429.995 353.18 430.475 358.647 429.985 362.756L429.985 362.756C429.263 362.665 429.271 362.598 428.697 363.027C425.904 373.846 422.166 384.869 415.823 394.19C413.741 398.007 410.522 401.425 407.462 404.482C386.007 425.916 367.055 430.524 338.53 430.504L191.754 430.503C180.787 430.504 169.289 431.13 158.406 430.026C131.333 427.281 100.671 407.309 90.6504 381.266C87.4701 374.892 86.5594 367.394 83.0966 361.279L82.7887 361.448C82.8043 361.988 82.6346 362.312 82.3725 362.756C81.4989 355.467 81.5808 345.143 81.677 337.818C81.4157 333.1 81.6625 328.231 81.6673 323.495L81.677 207.819ZM152.118 150.329C146.026 151.189 146.034 159.305 152.63 159.653C160.197 160.051 167.944 159.726 175.531 159.727L358.855 159.718C364.011 158.586 364.577 153.819 360.904 150.329C353.086 150.155 345.233 150.327 337.411 150.327L152.118 150.329ZM340.613 193.989C333.641 195.614 332.401 191.058 336.216 199.77C336.219 200.824 336.23 201.878 336.216 202.932L336.074 202.847C340.977 203.105 354.172 202.242 357.649 203.353C362.176 203.374 375.441 204.276 378.374 201.825C381.338 199.349 379.454 194.506 375.852 194.033C367.617 192.951 349.41 193.854 340.613 193.989ZM312.07 193.989C308.154 196.133 307.039 201.126 312.07 202.932C315.442 203.921 324.286 203.368 328.257 203.368L357.649 203.353C354.172 202.242 340.977 203.105 336.074 202.847L336.216 202.932C336.23 201.878 336.219 200.824 336.216 199.77C332.401 191.058 333.641 195.614 340.613 193.989L322.144 193.976C318.804 193.975 315.4 193.783 312.07 193.989Z"/>
	<path fill="#F7F0F4" transform="scale(2 2)" d="M134.244 193.989L191.564 193.994C194.481 193.979 199.549 193.108 201.864 195.39C203.713 197.212 203.915 200.612 201.861 202.353C199.347 204.484 189.559 203.363 186.313 203.357L144.798 203.353C141.76 203.352 137.058 204.154 134.244 202.932C129.758 200.808 128.878 196.11 134.244 193.989Z"/>
	<path fill="#FC5948" transform="scale(2 2)" d="M306.836 336.749C308.541 334.774 316.304 326.336 318.041 325.32C322.95 325.467 327.886 325.326 332.797 325.321L360.975 325.305C365.844 325.304 373.282 324.836 377.825 325.448C382.339 326.055 384.56 332.042 380.744 335.046C376.752 338.188 366.632 336.753 361.824 336.752L331.833 336.737C326.987 336.734 321.937 336.427 317.11 336.749C313.705 336.591 310.247 336.727 306.836 336.749Z"/>
	<path fill="#FC5948" transform="scale(2 2)" d="M194.456 325.32C198.048 329.396 202.292 332.765 205.894 336.749C200.37 336.583 194.79 336.75 189.258 336.752L155.651 336.761C148.113 336.761 128.948 340.442 130.126 329.254C134.409 323.086 138.742 325.33 145.613 325.332L180.638 325.294C184.743 325.295 190.564 325.928 194.456 325.32Z"/>
	<path fill="#FC5948" transform="scale(2 2)" d="M173.473 402.046L330.711 402.055C335.282 402.066 349.341 400.579 352.732 403.675C355.22 405.946 354.985 409.828 352.662 412.119C350.006 414.739 343.343 413.792 339.744 413.756L184.424 413.756C178.152 413.756 171.65 414.108 165.408 413.703C160.706 413.398 155.591 408.514 159.98 404.109C162.943 401.136 169.62 402.041 173.473 402.046Z"/>
	<path fill="#FC5948" transform="scale(2 2)" d="M139.326 364.951L367.624 364.928C371.167 364.914 376.929 363.893 379.879 366.349C385.041 370.644 380.692 376.46 373.373 376.491L163.167 376.497C154.504 376.501 144.785 376.979 136.276 376.351C129.481 375.849 125.163 364.789 139.326 364.951Z"/>
	<path fill="#FC5948" transform="scale(2 2)" d="M81.677 207.819C81.669 197.285 81.3121 186.623 81.784 176.104C83.5337 137.093 115.924 101.113 154.982 96.5684C166.139 95.2702 178.606 95.9521 189.928 95.96L213.464 95.9532C217.964 95.9372 222.44 95.7423 226.937 95.9578L227.222 95.5457C227.221 110.478 238.576 107.211 249.488 107.22L274.01 107.211C282.918 107.121 284.449 104.24 285.123 95.9623L327.246 95.9599C336.188 95.9603 345.413 95.5078 354.307 96.4264C401.489 101.299 430.021 140.521 429.996 185.901L429.985 216.29C428.489 214.054 429.357 200.046 429.401 196.524C429.434 193.863 429.085 188.345 429.205 193.115L429.092 192.781C428.698 191.644 424.68 187.133 423.906 186.567C423.783 186.477 417.066 183.962 415.31 183.085L415.185 183.939L413.915 184.59L413.844 184.406L413.486 184.667C411.533 184.018 412.991 182.27 412.56 180.775C408.267 182.612 412.642 215.249 410.956 217.669L410.966 195.334C410.964 188.448 411.112 181.511 410.204 174.668C405.912 142.35 378.339 117.016 345.731 115.866C332.309 115.393 318.727 115.789 305.289 115.787L186.215 115.789C176.259 115.791 165.461 115.12 155.641 117C125.968 122.681 102.9 149.099 100.72 179.105C100.002 188.991 100.813 199.028 100.528 208.939C99.1615 205.961 102.984 185.011 99.3415 178.974C98.6233 177.784 99.3943 175.697 99.6534 174.376C98.0176 173.608 95.7335 175.169 93.903 174.755C91.8506 174.291 95.3988 177.664 95.5829 178.043C91.553 179.043 89.7389 175.775 88.2793 180.905C87.2377 181.105 86.1326 179.429 84.918 179.86C85.0657 180.703 85.2822 181.761 84.8408 182.514C83.6376 181.266 84.2165 175.462 83.4738 172.191L82.8785 172.054C80.7894 176.281 83.0602 198.815 81.677 207.819Z"/>
	<defs>
		<linearGradient id="gradient_1" gradientUnits="userSpaceOnUse" x1="291.53922" y1="345.98914" x2="219.86746" y2="201.81732">
			<stop offset="0" stop-color="#FD7624"/>
			<stop offset="1" stop-color="#FFEFA7"/>
		</linearGradient>
	</defs>
	<path fill="url(#gradient_1)" transform="scale(2 2)" d="M186.733 233.745C213.421 186.422 279.934 179.42 316.074 221.35C319.442 225.258 322.22 229.494 325.12 233.745C325.382 234.309 325.633 234.881 325.91 235.438C339.982 256.543 338.799 289.712 327.082 311.501C325.892 313.713 318.165 324.696 318.041 325.32C316.304 326.336 308.541 334.774 306.836 336.749C301.436 339.95 296.514 343.651 290.882 346.515C266.783 358.767 237.482 357.534 214.854 342.816C211.834 340.851 209.01 338.558 205.894 336.749C202.292 332.765 198.048 329.396 194.456 325.32C187.157 314.106 183.518 311.192 179.061 296.833C172.502 275.528 175.627 252.995 186.733 233.745Z"/>
	<defs>
		<linearGradient id="gradient_2" gradientUnits="userSpaceOnUse" x1="289.89868" y1="332.06012" x2="220.69699" y2="215.42978">
			<stop offset="0" stop-color="#FE6423"/>
			<stop offset="1" stop-color="#FFE370"/>
		</linearGradient>
	</defs>
	<path fill="url(#gradient_2)" transform="scale(2 2)" d="M190.016 289.492C188.726 281.633 187.684 276.705 188.431 268.318C191.749 231.093 223.991 202.801 261.377 206.489C274.822 207.815 293.176 215.188 301.983 225.873C304.458 227.518 306.635 230.279 308.47 232.61C333.068 265.973 327.123 305.012 293.871 329.615C285.354 335.916 272.517 340.137 261.996 341.147C228.119 344.399 201.234 323.606 190.93 292.512L190.016 289.492Z"/>
	<path fill="#313238" transform="scale(2 2)" d="M251.241 260.215L251.212 240.651C251.204 236.935 249.867 225.503 256.393 225.819C262.449 226.112 260.543 235.868 260.54 239.76L260.517 260.215C257.135 259.347 254.608 259.421 251.241 260.215Z"/>
	<path fill="#FC5948" transform="scale(2 2)" d="M251.241 260.215C254.608 259.421 257.135 259.347 260.517 260.215C261.13 260.258 261.751 260.349 262.356 260.215C276.071 270.486 273.634 288.853 258.625 290.506C246.263 291.867 238.825 280.557 241.826 269.516C243.897 264.592 246.682 262.608 251.241 260.215Z"/>
</svg>
