<?xml version="1.0" encoding="utf-8" ?>
<svg xmlns="http://www.w3.org/2000/svg" xmlns:xlink="http://www.w3.org/1999/xlink" width="1024" height="1024">
	<path fill="#FEFEFE" d="M0 0L1024 0L1024 1024L0 1024L0 0Z"/>
	<path fill="#FAA032" d="M439.628 982.677L319.737 982.46L277.807 982.521C266.554 982.534 255.283 982.744 244.064 981.739C193.006 977.162 143.079 953.121 106.574 917.282Q104.635 915.388 102.742 913.447Q100.849 911.506 99.0047 909.52Q97.16 907.534 95.3644 905.503Q93.5688 903.472 91.8233 901.398Q90.0778 899.324 88.3834 897.208Q86.6891 895.092 85.0469 892.935Q83.4047 890.778 81.8157 888.582Q80.2267 886.386 78.6917 884.152Q77.1568 881.917 75.6769 879.646Q74.1969 877.375 72.7729 875.068Q71.3489 872.762 69.9816 870.421Q68.6143 868.08 67.3046 865.707Q65.9948 863.333 64.7434 860.929Q63.492 858.524 62.2997 856.09Q61.1074 853.655 59.9749 851.192Q58.8423 848.729 57.7703 846.24Q56.6982 843.75 55.6873 841.234Q54.6763 838.719 53.7271 836.18Q52.7778 833.641 51.8909 831.079Q51.0039 828.518 50.1798 825.935Q49.3556 823.353 48.5948 820.751Q47.8339 818.149 47.1368 815.53Q46.4397 812.91 45.8067 810.274Q45.1738 807.638 44.6054 804.988Q44.037 802.337 43.5335 799.673Q43.03 797.01 42.5916 794.335Q42.1533 791.66 41.7804 788.975Q41.4075 786.29 41.1003 783.596Q40.793 780.903 40.5517 778.203Q40.3103 775.503 40.1349 772.798Q39.9595 770.093 39.8502 767.384Q39.7409 764.675 39.6978 761.965L39.8352 451.707L39.952 334.4L39.9519 282.993C39.9545 267.104 39.7784 251.4 41.7208 235.589C42.884 226.121 45.0243 216.636 47.2864 207.379C56.5338 169.535 78.5812 134.671 105.747 107.144C140.327 72.1042 191.464 47.413 240.396 41.9151C264.846 39.1679 292.619 40.3821 317.387 40.38L429.464 40.2525L625.874 40.2805L711.526 40.2804C746.05 40.3191 780.541 38.7023 814.293 47.3116Q817.927 48.2511 821.528 49.3109Q825.129 50.3707 828.693 51.5496Q832.257 52.7285 835.78 54.0252Q839.302 55.3219 842.78 56.735Q846.258 58.148 849.686 59.6759Q853.115 61.2038 856.491 62.8448Q859.867 64.4858 863.187 66.2381Q866.506 67.9904 869.766 69.8521Q873.025 71.7137 876.221 73.6827Q879.417 75.6517 882.546 77.7259Q885.675 79.8 888.732 81.9769Q891.791 84.1539 894.774 86.4313Q897.758 88.7087 900.665 91.0841Q903.572 93.4594 906.398 95.93Q909.224 98.4007 911.966 100.964Q914.708 103.527 917.364 106.18C951.944 140.368 976.919 188.806 982.049 237.42C984.761 263.123 983.208 289.581 983.126 315.409L983.094 435.583C976.409 432.7 961.937 414.944 955.976 408.842L862.384 313.496C856.792 307.796 851.601 301.691 846.085 295.91C836.932 286.32 827.523 277.088 818.096 267.777C815.274 264.991 811.315 259.744 807.725 258.179C792.804 242.089 778.317 226.342 761.489 212.146C697.392 158.077 612.59 123.695 528.575 120.59Q524.107 120.405 519.635 120.322Q515.164 120.239 510.692 120.258Q506.22 120.277 501.749 120.398Q497.279 120.52 492.812 120.744Q488.346 120.967 483.885 121.293Q479.425 121.619 474.973 122.047Q470.522 122.475 466.081 123.004Q461.64 123.533 457.213 124.164Q452.786 124.795 448.374 125.527Q443.962 126.259 439.568 127.092Q435.174 127.925 430.8 128.857Q426.427 129.79 422.075 130.823Q417.724 131.856 413.397 132.988Q409.071 134.12 404.771 135.351Q400.472 136.581 396.202 137.91Q391.932 139.239 387.693 140.665Q383.454 142.091 379.249 143.613Q375.044 145.136 370.875 146.754Q366.706 148.373 362.575 150.086Q358.444 151.799 354.354 153.607Q350.263 155.414 346.215 157.314Q342.166 159.215 338.163 161.207Q334.159 163.2 330.202 165.283Q326.245 167.367 322.336 169.54Q318.428 171.714 314.57 173.976Q310.712 176.239 306.907 178.589Q303.102 180.939 299.352 183.375Q295.602 185.811 291.908 188.333Q288.215 190.854 284.58 193.46Q280.945 196.065 277.371 198.753Q273.797 201.441 270.285 204.21Q266.773 206.979 263.325 209.827C255.024 216.577 247.161 223.951 239.338 231.245C230.774 239.231 223.023 247.964 215.334 256.783Q212.635 259.891 210.003 263.055Q207.37 266.22 204.806 269.439Q202.241 272.659 199.746 275.933Q197.25 279.206 194.825 282.532Q192.399 285.857 190.045 289.234Q187.691 292.61 185.409 296.036Q183.127 299.462 180.918 302.935Q178.71 306.409 176.575 309.928Q174.441 313.448 172.382 317.012Q170.323 320.576 168.34 324.183Q166.357 327.79 164.451 331.439Q162.545 335.087 160.717 338.775Q158.889 342.463 157.14 346.189Q155.391 349.915 153.721 353.678Q152.052 357.44 150.463 361.237Q148.873 365.034 147.365 368.864Q145.857 372.694 144.43 376.555Q143.004 380.416 141.659 384.307Q140.315 388.197 139.054 392.115Q137.793 396.034 136.615 399.978Q135.437 403.922 134.344 407.89Q133.25 411.858 132.241 415.849Q131.232 419.839 130.308 423.85Q129.383 427.862 128.545 431.891Q127.706 435.921 126.953 439.968Q126.2 444.015 125.534 448.077Q124.867 452.138 124.287 456.214Q123.706 460.289 123.213 464.375Q122.719 468.462 122.312 472.558Q121.906 476.654 121.586 480.757Q121.267 484.861 121.034 488.971Q120.802 493.08 120.657 497.194Q120.471 501.875 120.401 506.56Q120.33 511.244 120.374 515.929Q120.418 520.614 120.578 525.296Q120.737 529.979 121.011 534.656Q121.285 539.333 121.674 544.002Q122.063 548.67 122.567 553.328Q123.07 557.986 123.688 562.63Q124.305 567.275 125.037 571.902Q125.768 576.53 126.613 581.138Q127.458 585.746 128.416 590.332Q129.373 594.919 130.443 599.48Q131.513 604.041 132.695 608.575Q133.877 613.108 135.169 617.611Q136.462 622.115 137.865 626.585Q139.267 631.055 140.779 635.489Q142.292 639.924 143.912 644.319Q145.532 648.715 147.26 653.07Q148.988 657.425 150.823 661.736Q152.657 666.047 154.596 670.312Q156.536 674.576 158.58 678.792Q160.623 683.008 162.77 687.172Q164.917 691.337 167.165 695.447Q169.413 699.557 171.761 703.612Q174.11 707.665 176.557 711.661Q179.004 715.656 181.549 719.589Q184.093 723.523 186.734 727.393Q189.374 731.264 192.108 735.068Q194.843 738.872 197.67 742.608Q200.497 746.344 203.415 750.009Q206.333 753.675 209.34 757.267Q212.347 760.86 215.442 764.378Q218.536 767.895 221.716 771.336C226.609 776.566 231.515 781.88 236.73 786.788C241.382 791.167 248.47 796.441 252.109 801.468C255.27 806.516 261.412 811.226 265.666 815.486Q286.847 837.113 308.944 857.802L409.305 953.964C417.31 961.662 434.173 974.53 439.628 982.677Z"/>
	<path fill="#E18B30" d="M252.109 801.468C248.47 796.441 241.382 791.167 236.73 786.788C231.515 781.88 226.609 776.566 221.716 771.336Q218.536 767.895 215.442 764.378Q212.347 760.86 209.34 757.267Q206.333 753.675 203.415 750.009Q200.497 746.344 197.67 742.608Q194.843 738.872 192.108 735.068Q189.374 731.264 186.734 727.393Q184.093 723.523 181.549 719.589Q179.004 715.656 176.557 711.661Q174.11 707.665 171.761 703.611Q169.413 699.557 167.165 695.447Q164.917 691.337 162.77 687.172Q160.623 683.008 158.58 678.792Q156.536 674.576 154.596 670.312Q152.657 666.047 150.823 661.736Q148.988 657.425 147.26 653.07Q145.532 648.715 143.912 644.319Q142.292 639.924 140.779 635.489Q139.267 631.055 137.865 626.585Q136.462 622.115 135.169 617.611Q133.877 613.108 132.695 608.575Q131.513 604.041 130.443 599.48Q129.373 594.919 128.416 590.333Q127.458 585.746 126.613 581.138Q125.768 576.53 125.037 571.902Q124.305 567.275 123.688 562.631Q123.07 557.986 122.567 553.328Q122.063 548.671 121.674 544.002Q121.285 539.333 121.011 534.656Q120.737 529.979 120.578 525.296Q120.418 520.614 120.374 515.929Q120.33 511.244 120.401 506.56Q120.471 501.875 120.657 497.194Q120.802 493.08 121.034 488.971Q121.267 484.861 121.586 480.757Q121.906 476.654 122.312 472.558Q122.719 468.462 123.213 464.375Q123.706 460.289 124.287 456.214Q124.867 452.138 125.534 448.077Q126.2 444.015 126.953 439.968Q127.706 435.921 128.545 431.891Q129.383 427.862 130.308 423.85Q131.232 419.839 132.241 415.849Q133.25 411.858 134.344 407.89Q135.437 403.922 136.615 399.978Q137.793 396.034 139.054 392.115Q140.315 388.197 141.659 384.307Q143.004 380.416 144.43 376.555Q145.857 372.694 147.365 368.864Q148.873 365.034 150.463 361.237Q152.052 357.44 153.721 353.678Q155.391 349.915 157.14 346.189Q158.889 342.463 160.717 338.775Q162.545 335.087 164.451 331.439Q166.357 327.79 168.34 324.183Q170.323 320.576 172.382 317.012Q174.441 313.448 176.575 309.928Q178.71 306.409 180.918 302.935Q183.127 299.462 185.409 296.036Q187.691 292.61 190.045 289.234Q192.399 285.857 194.825 282.532Q197.25 279.206 199.746 275.933Q202.241 272.659 204.806 269.439Q207.37 266.22 210.003 263.055Q212.635 259.891 215.334 256.783C223.023 247.964 230.774 239.231 239.338 231.245C247.161 223.951 255.024 216.577 263.325 209.827Q266.773 206.979 270.285 204.21Q273.797 201.441 277.371 198.753Q280.945 196.065 284.58 193.46Q288.215 190.854 291.908 188.333Q295.602 185.811 299.352 183.375Q303.102 180.939 306.907 178.589Q310.712 176.239 314.57 173.976Q318.428 171.714 322.336 169.54Q326.245 167.367 330.202 165.283Q334.159 163.2 338.163 161.207Q342.166 159.215 346.215 157.314Q350.263 155.414 354.354 153.607Q358.444 151.799 362.575 150.086Q366.706 148.373 370.875 146.754Q375.044 145.136 379.249 143.613Q383.454 142.091 387.693 140.665Q391.932 139.239 396.202 137.91Q400.472 136.581 404.771 135.351Q409.071 134.12 413.397 132.988Q417.724 131.856 422.075 130.823Q426.427 129.79 430.8 128.857Q435.174 127.925 439.568 127.092Q443.962 126.259 448.374 125.527Q452.786 124.795 457.213 124.164Q461.64 123.533 466.081 123.004Q470.522 122.475 474.973 122.047Q479.425 121.619 483.885 121.293Q488.346 120.967 492.812 120.744Q497.279 120.52 501.749 120.398Q506.22 120.277 510.692 120.258Q515.164 120.239 519.635 120.322Q524.107 120.405 528.575 120.59C612.59 123.695 697.392 158.077 761.489 212.146C778.317 226.342 792.804 242.089 807.725 258.179C811.315 259.744 815.274 264.991 818.096 267.777C827.523 277.088 836.932 286.32 846.085 295.91C851.601 301.691 856.792 307.796 862.384 313.496L955.976 408.842C961.937 414.944 976.409 432.7 983.094 435.583L983.022 665.571L983.066 733.282C983.062 756.728 983.982 780.606 978.854 803.651C969.546 845.491 950.186 884.592 919.638 915.067C891.822 942.816 857.935 963.97 819.921 974.419C784.931 984.037 760.318 982.556 724.93 982.553L653.119 982.585L447.821 982.734L439.628 982.677C434.173 974.53 417.31 961.662 409.305 953.964L308.944 857.802Q286.847 837.113 265.666 815.486C261.412 811.226 255.27 806.516 252.109 801.468Z"/>
	<path fill="#E2BC67" d="M684.937 268.322L685.431 268.489C685.473 268.642 685.499 268.801 685.557 268.949C687.284 273.341 715.661 299.905 721.445 305.751L855.747 440.429C864.833 449.506 873.736 458.819 882.677 468.042C888.026 473.559 893.154 479.983 899.593 484.238C901.861 498.665 900.753 514.855 899.933 529.394C895.811 602.458 872.24 676.4 828.921 735.827C816.128 753.377 802.771 770.288 787.496 785.767Q784.797 788.46 782.044 791.099Q779.292 793.739 776.489 796.323Q773.685 798.907 770.831 801.436Q767.976 803.964 765.073 806.436Q762.169 808.907 759.217 811.321Q756.265 813.735 753.266 816.09Q750.267 818.445 747.222 820.74Q744.177 823.035 741.087 825.27Q737.998 827.504 734.864 829.677Q731.731 831.85 728.555 833.961Q725.38 836.072 722.163 838.119Q718.946 840.167 715.69 842.15Q712.433 844.134 709.138 846.053Q705.843 847.972 702.51 849.825Q699.178 851.679 695.81 853.466Q692.441 855.253 689.038 856.973Q685.635 858.693 682.199 860.346Q678.763 861.999 675.294 863.583Q671.826 865.168 668.327 866.683Q664.828 868.199 661.3 869.645Q657.771 871.091 654.215 872.467Q650.659 873.843 647.076 875.149Q643.494 876.455 639.886 877.689Q636.278 878.924 632.647 880.087Q629.016 881.25 625.362 882.341Q621.708 883.432 618.034 884.451Q614.359 885.469 610.665 886.415Q606.971 887.361 603.259 888.233Q599.547 889.106 595.819 889.905Q592.09 890.704 588.347 891.43Q584.603 892.155 580.846 892.806Q577.089 893.457 573.32 894.034C534.324 900.097 484.502 899.962 445.737 893.03C441.569 892.285 435.412 891.861 431.653 890.261L432.161 889.882C430.757 886.877 421.837 879.142 419.154 876.45C407.08 864.338 394.845 852.23 382.546 840.349C374.242 832.326 335.809 796.87 332.385 790.197C369.27 812.413 409.247 828.867 452.653 831.855C460.222 832.377 467.908 832.146 475.495 832.148L512.051 832.142Q511.895 809 511.983 785.858L512.158 785.622Q516.102 785.883 520.052 786.027Q524.002 786.171 527.955 786.198Q531.907 786.225 535.859 786.136Q539.811 786.046 543.758 785.84Q547.705 785.633 551.645 785.31Q555.584 784.987 559.512 784.548Q563.44 784.108 567.354 783.553Q571.267 782.997 575.163 782.327Q579.058 781.656 582.932 780.87Q586.806 780.084 590.654 779.184Q594.503 778.284 598.324 777.271Q602.144 776.258 605.933 775.132Q609.722 774.006 613.476 772.769Q617.23 771.531 620.946 770.183Q624.662 768.835 628.336 767.378Q632.01 765.921 635.64 764.356C649.603 758.2 663.629 751.144 676.438 742.823Q678.318 741.604 680.174 740.348Q682.03 739.093 683.861 737.801Q685.693 736.51 687.498 735.183Q689.304 733.857 691.084 732.495Q692.863 731.133 694.616 729.738Q696.369 728.342 698.095 726.912Q699.82 725.482 701.517 724.019Q703.214 722.556 704.883 721.061Q706.552 719.565 708.191 718.037Q709.83 716.509 711.439 714.95Q713.048 713.391 714.627 711.8Q716.205 710.21 717.753 708.589Q719.3 706.968 720.815 705.318Q722.331 703.667 723.814 701.988Q725.297 700.308 726.748 698.6Q728.198 696.892 729.615 695.156Q731.031 693.419 732.414 691.656Q733.797 689.893 735.145 688.103Q736.493 686.313 737.806 684.498Q739.119 682.682 740.397 680.841Q741.675 679 742.916 677.135Q744.158 675.27 745.363 673.381Q746.568 671.491 747.736 669.579Q748.905 667.667 750.035 665.733Q751.166 663.798 752.259 661.842Q753.352 659.886 754.407 657.909Q755.462 655.932 756.478 653.935Q757.494 651.938 758.471 649.921Q759.448 647.905 760.386 645.869Q761.324 643.834 762.222 641.781Q763.12 639.728 763.977 637.658Q764.835 635.588 765.653 633.502C780.813 594.296 787.685 543.736 780.324 502.189C771.275 451.122 736.865 396.23 697.879 362.7Q690.283 356.206 682.201 350.329Q674.119 344.452 665.6 339.227C663.506 337.96 659.58 336.269 658.723 333.907C658.652 333.709 658.619 333.5 658.567 333.297C654.995 331.259 650.842 329.794 647.074 328.09C662.152 313.942 673.509 301.522 680.793 281.697C682.369 277.408 684.058 272.803 684.937 268.322Z"/>
	<path fill="#D80900" d="M658.567 333.297C721.225 358.639 771.161 405.579 797.586 468.096C824.277 531.242 822.975 601.143 797.19 664.25C769.702 731.528 711.257 786.628 644.705 814.558C626.732 822.101 606.843 828.783 587.448 831.234C575.891 832.695 563.952 832.115 552.316 832.057L512.051 832.142Q511.895 809 511.983 785.858L512.158 785.622Q516.102 785.883 520.052 786.027Q524.002 786.171 527.955 786.198Q531.907 786.225 535.859 786.136Q539.811 786.046 543.758 785.84Q547.705 785.633 551.645 785.31Q555.584 784.987 559.512 784.548Q563.44 784.108 567.354 783.553Q571.267 782.997 575.163 782.327Q579.058 781.656 582.932 780.87Q586.806 780.084 590.654 779.184Q594.503 778.284 598.324 777.271Q602.144 776.258 605.933 775.132Q609.722 774.006 613.476 772.769Q617.23 771.531 620.946 770.183Q624.662 768.835 628.336 767.378Q632.01 765.921 635.64 764.356C649.603 758.2 663.629 751.144 676.438 742.823Q678.318 741.604 680.174 740.348Q682.03 739.093 683.861 737.801Q685.693 736.51 687.498 735.183Q689.304 733.857 691.084 732.495Q692.863 731.133 694.616 729.738Q696.369 728.342 698.095 726.912Q699.82 725.482 701.517 724.019Q703.214 722.556 704.883 721.061Q706.552 719.565 708.191 718.037Q709.83 716.509 711.439 714.95Q713.048 713.391 714.627 711.8Q716.205 710.21 717.753 708.589Q719.3 706.968 720.815 705.318Q722.331 703.667 723.814 701.988Q725.297 700.308 726.748 698.6Q728.198 696.892 729.615 695.156Q731.031 693.419 732.414 691.656Q733.797 689.893 735.145 688.103Q736.493 686.313 737.806 684.498Q739.119 682.682 740.397 680.841Q741.675 679 742.916 677.135Q744.158 675.27 745.363 673.381Q746.568 671.491 747.736 669.579Q748.905 667.667 750.035 665.733Q751.166 663.798 752.259 661.842Q753.352 659.886 754.407 657.909Q755.462 655.932 756.478 653.935Q757.494 651.938 758.471 649.921Q759.448 647.905 760.386 645.869Q761.324 643.834 762.222 641.781Q763.12 639.728 763.977 637.658Q764.835 635.588 765.653 633.502C780.813 594.296 787.685 543.736 780.324 502.189C771.275 451.122 736.865 396.23 697.879 362.7Q690.283 356.206 682.201 350.329Q674.119 344.452 665.6 339.227C663.506 337.96 659.58 336.269 658.723 333.907C658.652 333.709 658.619 333.5 658.567 333.297Z"/>
	<path fill="#F72400" d="M647.074 328.09C650.842 329.794 654.995 331.259 658.567 333.297C658.619 333.5 658.652 333.709 658.723 333.907C659.58 336.269 663.506 337.96 665.6 339.227Q674.119 344.452 682.201 350.329Q690.283 356.206 697.879 362.7C736.865 396.23 771.275 451.122 780.324 502.189C787.685 543.736 780.813 594.296 765.653 633.502Q764.835 635.588 763.977 637.658Q763.12 639.728 762.222 641.781Q761.324 643.834 760.386 645.869Q759.448 647.905 758.471 649.921Q757.494 651.938 756.478 653.935Q755.462 655.932 754.407 657.909Q753.352 659.886 752.259 661.842Q751.166 663.798 750.035 665.733Q748.905 667.667 747.736 669.579Q746.568 671.491 745.363 673.381Q744.158 675.27 742.916 677.135Q741.675 679 740.397 680.841Q739.119 682.682 737.806 684.498Q736.493 686.313 735.145 688.103Q733.797 689.893 732.414 691.656Q731.031 693.42 729.615 695.156Q728.198 696.892 726.747 698.6Q725.297 700.308 723.814 701.988Q722.331 703.667 720.815 705.318Q719.3 706.968 717.753 708.589Q716.205 710.21 714.627 711.8Q713.048 713.391 711.439 714.95Q709.83 716.509 708.191 718.037Q706.552 719.565 704.883 721.061Q703.214 722.556 701.517 724.019Q699.82 725.482 698.095 726.912Q696.369 728.342 694.616 729.737Q692.863 731.133 691.084 732.495Q689.304 733.857 687.498 735.183Q685.693 736.51 683.861 737.801Q682.03 739.093 680.174 740.348Q678.318 741.604 676.438 742.823C663.629 751.144 649.603 758.2 635.64 764.356Q632.01 765.921 628.336 767.378Q624.662 768.835 620.946 770.183Q617.23 771.531 613.476 772.769Q609.722 774.006 605.933 775.132Q602.144 776.258 598.324 777.271Q594.503 778.284 590.654 779.184Q586.806 780.084 582.932 780.87Q579.058 781.656 575.163 782.327Q571.267 782.997 567.354 783.553Q563.44 784.108 559.512 784.548Q555.584 784.987 551.645 785.31Q547.705 785.633 543.758 785.84Q539.811 786.046 535.859 786.136Q531.907 786.225 527.955 786.198Q524.002 786.171 520.052 786.027Q516.102 785.883 512.158 785.622C513.368 776.707 512.471 763.157 512.467 753.737L512.084 650.696Q512.025 633.38 512.153 616.066C512.222 610.72 512.018 605.11 512.574 599.808C512.669 598.901 512.842 598.476 513.417 597.775L517.288 599.989C517.55 589.471 518.578 569.49 516.795 559.823L513.39 561.776C511.851 556.322 512.655 538.943 512.601 532.523Q512.28 483.086 512.673 433.651C512.7 425.282 511.545 414.472 512.693 406.38C512.062 404.896 511.766 403.08 511.358 401.512C512.063 396.544 511.629 390.91 511.605 385.881L511.422 356.478L550.558 356.288C558.897 356.213 567.617 355.651 575.896 356.611C582.042 355.02 588.51 354.484 594.71 352.971C613.72 348.334 631.188 339.351 647.074 328.09Z"/>
	<path fill="#347313" d="M516.795 559.823C532.813 550.757 549.182 542.277 565.372 533.521C553.07 547.961 540.93 562.358 529.456 577.479C539.075 595.79 553.543 611.102 563.292 629.271Q547.315 619.654 531.747 609.388C526.993 606.313 521.768 603.417 517.288 599.989C517.55 589.471 518.578 569.49 516.795 559.823Z"/>
	<path fill="#4C8D22" d="M511.422 356.478L550.558 356.288C558.897 356.213 567.617 355.651 575.896 356.611C576.123 356.741 576.348 356.875 576.578 357.001C579.394 358.552 583.356 359.215 586.448 360.215Q593.468 362.444 600.075 365.7C629.796 380.4 653.143 408.199 663.216 439.71C669.523 459.442 670.244 482.552 667.155 503.05C662.609 488.037 651.689 475.704 637.899 468.369C623.701 460.816 607.964 458.891 592.44 455.74C560.608 449.279 528.93 436.215 512.693 406.38C512.062 404.896 511.766 403.08 511.358 401.512C512.063 396.544 511.629 390.91 511.605 385.881L511.422 356.478Z"/>
	<path fill="#68AC32" d="M556.337 370.717C559.987 370.7 563.635 370.838 567.254 371.346C587.529 374.193 606.621 386.97 618.805 403.182C622.501 408.098 627.148 415.537 626.019 421.917C625.676 423.858 624.686 425.611 622.999 426.681C618.75 429.378 612.873 427.527 608.393 426.416C589.754 422.113 563.209 410.443 548.274 398.871C543.425 395.114 535.874 389.285 535.244 382.718C535.024 380.424 535.661 378.113 537.209 376.384C541.603 371.474 550.199 370.936 556.337 370.717Z"/>
	<path fill="#FEDE90" d="M252.109 801.468C248.47 796.441 241.382 791.167 236.73 786.788C231.515 781.88 226.609 776.566 221.716 771.336Q218.536 767.895 215.442 764.378Q212.347 760.86 209.34 757.267Q206.333 753.675 203.415 750.009Q200.497 746.344 197.67 742.608Q194.843 738.872 192.108 735.068Q189.374 731.264 186.734 727.393Q184.093 723.523 181.549 719.589Q179.004 715.656 176.557 711.661Q174.11 707.665 171.761 703.611Q169.413 699.557 167.165 695.447Q164.917 691.337 162.77 687.172Q160.623 683.008 158.58 678.792Q156.536 674.576 154.596 670.312Q152.657 666.047 150.823 661.736Q148.988 657.425 147.26 653.07Q145.532 648.715 143.912 644.319Q142.292 639.924 140.779 635.489Q139.267 631.055 137.865 626.585Q136.462 622.115 135.169 617.611Q133.877 613.108 132.695 608.575Q131.513 604.041 130.443 599.48Q129.373 594.919 128.416 590.333Q127.458 585.746 126.613 581.138Q125.768 576.53 125.037 571.902Q124.305 567.275 123.688 562.631Q123.07 557.986 122.567 553.328Q122.063 548.671 121.674 544.002Q121.285 539.333 121.011 534.656Q120.737 529.979 120.578 525.296Q120.418 520.614 120.374 515.929Q120.33 511.244 120.401 506.56Q120.471 501.875 120.657 497.194Q120.802 493.08 121.034 488.971Q121.267 484.861 121.586 480.757Q121.906 476.654 122.312 472.558Q122.719 468.462 123.213 464.375Q123.706 460.289 124.287 456.214Q124.867 452.138 125.534 448.077Q126.2 444.015 126.953 439.968Q127.706 435.921 128.545 431.891Q129.383 427.862 130.308 423.85Q131.232 419.839 132.241 415.849Q133.25 411.858 134.344 407.89Q135.437 403.922 136.615 399.978Q137.793 396.034 139.054 392.115Q140.315 388.197 141.659 384.307Q143.004 380.416 144.43 376.555Q145.857 372.694 147.365 368.864Q148.873 365.034 150.463 361.237Q152.052 357.44 153.721 353.678Q155.391 349.915 157.14 346.189Q158.889 342.463 160.717 338.775Q162.545 335.087 164.451 331.439Q166.357 327.79 168.34 324.183Q170.323 320.576 172.382 317.012Q174.441 313.448 176.575 309.928Q178.71 306.409 180.918 302.935Q183.127 299.462 185.409 296.036Q187.691 292.61 190.045 289.234Q192.399 285.857 194.825 282.532Q197.25 279.206 199.746 275.933Q202.241 272.659 204.806 269.439Q207.37 266.22 210.003 263.055Q212.635 259.891 215.334 256.783C223.023 247.964 230.774 239.231 239.338 231.245C247.161 223.951 255.024 216.577 263.325 209.827Q266.773 206.979 270.285 204.21Q273.797 201.441 277.371 198.753Q280.945 196.065 284.58 193.46Q288.215 190.854 291.908 188.333Q295.602 185.811 299.352 183.375Q303.102 180.939 306.907 178.589Q310.712 176.239 314.57 173.976Q318.428 171.714 322.336 169.54Q326.245 167.367 330.202 165.283Q334.159 163.2 338.163 161.207Q342.166 159.215 346.215 157.314Q350.263 155.414 354.354 153.607Q358.444 151.799 362.575 150.086Q366.706 148.373 370.875 146.754Q375.044 145.136 379.249 143.613Q383.454 142.091 387.693 140.665Q391.932 139.239 396.202 137.91Q400.472 136.581 404.771 135.351Q409.071 134.12 413.397 132.988Q417.724 131.856 422.075 130.823Q426.427 129.79 430.8 128.857Q435.174 127.925 439.568 127.092Q443.962 126.259 448.374 125.527Q452.786 124.795 457.213 124.164Q461.64 123.533 466.081 123.004Q470.522 122.475 474.973 122.047Q479.425 121.619 483.885 121.293Q488.346 120.967 492.812 120.744Q497.279 120.52 501.749 120.398Q506.22 120.277 510.692 120.258Q515.164 120.239 519.635 120.322Q524.107 120.405 528.575 120.59C612.59 123.695 697.392 158.077 761.489 212.146C778.317 226.342 792.804 242.089 807.725 258.179C814.787 266.947 822.093 275.616 828.761 284.688C837.773 296.95 846.127 310.478 853.607 323.724C878.701 368.161 898.24 433.047 899.593 484.238C893.154 479.983 888.026 473.559 882.677 468.042C873.736 458.819 864.833 449.506 855.747 440.429L721.445 305.751C715.661 299.905 687.284 273.341 685.557 268.949C685.499 268.801 685.473 268.642 685.431 268.489L684.937 268.322C684.058 272.803 682.369 277.408 680.793 281.697C673.509 301.522 662.152 313.942 647.074 328.09C631.188 339.351 613.72 348.334 594.71 352.971C588.51 354.484 582.042 355.02 575.896 356.611C567.617 355.651 558.897 356.213 550.558 356.288L511.422 356.478L511.605 385.881C511.629 390.91 512.063 396.544 511.358 401.512C511.766 403.08 512.062 404.896 512.693 406.38C511.545 414.472 512.7 425.282 512.673 433.651Q512.28 483.087 512.601 532.523C512.655 538.943 511.851 556.322 513.39 561.776L516.795 559.823C518.578 569.49 517.55 589.471 517.288 599.989L513.417 597.775C512.842 598.476 512.669 598.901 512.574 599.808C512.018 605.11 512.222 610.72 512.153 616.066Q512.025 633.381 512.084 650.696L512.467 753.737C512.471 763.157 513.368 776.707 512.158 785.622L511.983 785.858Q511.895 809 512.051 832.142L475.495 832.148C467.908 832.146 460.222 832.377 452.653 831.855C409.247 828.867 369.27 812.413 332.385 790.197C335.809 796.87 374.242 832.326 382.546 840.349C394.845 852.23 407.08 864.338 419.154 876.45C421.837 879.142 430.757 886.877 432.161 889.882L431.653 890.261C373.968 878.187 330.303 858.754 282.149 824.702C271.901 817.455 262.586 809.005 252.449 801.709L252.109 801.468Z"/>
	<path fill="#4C8D22" d="M527.633 192.703C532.753 191.397 537.589 191.621 542.165 194.484C547.226 197.65 549.909 202.409 551.534 207.969C558.626 211.677 574.897 231.249 581.367 238.026C593.333 250.557 606.137 262.565 617.289 275.839C643.052 277.875 660.548 279.077 684.937 268.322C684.058 272.803 682.369 277.408 680.793 281.697C673.509 301.522 662.152 313.942 647.074 328.09C631.188 339.351 613.72 348.334 594.71 352.971C588.51 354.484 582.042 355.02 575.896 356.611C567.617 355.651 558.897 356.213 550.558 356.288L511.422 356.478C488.612 356.468 465.734 356.106 442.931 356.572C436.715 354.263 430.05 353.36 423.696 351.476C409.406 347.237 396.842 340.27 384.354 332.33C359.781 315.084 343.659 292.706 333.611 264.534C358.759 283.133 382.919 274.868 411.691 275.864C434.974 276.671 459.254 282.884 479.177 295.099C486.187 299.398 492.617 304.528 499.028 309.654C490.335 278.159 488.831 247.105 503.769 217.09C509.068 206.443 515.914 196.596 527.633 192.703Z"/>
	<path fill="#347313" d="M527.633 192.703C532.753 191.397 537.589 191.621 542.165 194.484C547.226 197.65 549.909 202.409 551.534 207.969C551.575 210.317 551.769 212.923 551.286 215.226C549.886 221.888 545.043 227.72 541.682 233.507Q537.945 239.922 535.069 246.766C527.862 264.263 524.644 281.692 522.614 300.374C522.156 304.596 521.308 309.164 521.392 313.399C518.004 318.361 514.772 323.419 511.411 328.397C509.953 320.512 510.91 307.452 510.92 299.095C510.935 286.386 510.529 273.474 511.295 260.788Q511.599 256.401 512.085 252.031Q512.57 247.661 513.237 243.315Q513.905 238.969 514.752 234.655Q515.599 230.34 516.625 226.064Q517.651 221.789 518.854 217.559Q520.057 213.33 521.435 209.155Q522.813 204.979 524.363 200.864Q525.913 196.75 527.633 192.703Z"/>
	<path fill="#68AC32" d="M397.587 292.224C418.909 291.872 438.74 294.637 458.59 302.589C464.397 304.915 470.044 307.373 475.101 311.115C479.463 314.343 486.304 320.455 486.887 326.113C487.155 328.719 485.922 331.168 484.229 333.07C481.388 336.262 477.918 336.585 473.929 336.891C445.719 337.133 415.716 329.056 392.565 312.415C389.078 309.908 383.411 305.419 383.003 300.881C382.882 299.536 383.321 298.329 384.143 297.282C387.198 293.391 393.069 292.88 397.587 292.224Z"/>
	<path fill="#E2BC67" d="M551.534 207.969C558.626 211.677 574.897 231.249 581.367 238.026C593.333 250.557 606.137 262.565 617.289 275.839C587.034 274.998 548.9 287.08 526.812 308.065C524.974 309.811 523.215 311.637 521.392 313.399C521.308 309.164 522.156 304.596 522.614 300.374C524.644 281.692 527.862 264.263 535.069 246.766Q537.945 239.922 541.682 233.507C545.043 227.72 549.886 221.888 551.286 215.226C551.769 212.923 551.575 210.317 551.534 207.969Z"/>
	<path fill="#2B5F08" d="M684.937 268.322C684.058 272.803 682.369 277.408 680.793 281.697C673.509 301.522 662.152 313.942 647.074 328.09C631.188 339.351 613.72 348.334 594.71 352.971C588.51 354.484 582.042 355.02 575.896 356.611C567.617 355.651 558.897 356.213 550.558 356.288L511.422 356.478C511.132 347.131 511.607 337.753 511.411 328.397C514.772 323.419 518.004 318.361 521.392 313.399C523.215 311.637 524.974 309.811 526.812 308.065C548.9 287.08 587.034 274.998 617.289 275.839C643.052 277.875 660.548 279.077 684.937 268.322Z"/>
	<path fill="#347313" d="M610.777 292.217C617.486 291.754 630.227 291.094 635.681 295.41C636.934 296.401 637.746 297.806 637.84 299.411C638.041 302.877 635.529 306.361 633.395 308.884C617.368 327.824 586.383 335.722 562.625 337.524C557.385 337.882 539.047 338.873 535.366 335.905C534.498 335.205 534.268 334.698 534.226 333.598C534.039 328.712 538.336 321.956 541.504 318.369C555.898 302.072 589.627 293.407 610.777 292.217Z"/>
	<path fill="#F8572B" d="M384.354 332.33C396.842 340.27 409.406 347.237 423.696 351.476C430.05 353.36 436.715 354.263 442.931 356.572C465.734 356.106 488.612 356.468 511.422 356.478L511.605 385.881C511.629 390.91 512.063 396.544 511.358 401.512C511.766 403.08 512.062 404.896 512.693 406.38C511.545 414.472 512.7 425.282 512.673 433.651Q512.28 483.087 512.601 532.523C512.655 538.943 511.851 556.322 513.39 561.776L516.795 559.823C518.578 569.49 517.55 589.471 517.288 599.989L513.417 597.775C512.842 598.476 512.669 598.901 512.574 599.808C512.018 605.11 512.222 610.72 512.153 616.066Q512.025 633.381 512.084 650.696L512.467 753.737C512.471 763.157 513.368 776.707 512.158 785.622L511.983 785.858Q511.895 809 512.051 832.142L475.495 832.148C467.908 832.146 460.222 832.377 452.653 831.855C409.247 828.867 369.27 812.413 332.385 790.197C329.409 787.57 325.651 785.341 322.429 782.98Q312.028 775.488 302.441 766.981C270.307 737.997 245.818 704.292 229.157 664.32C224.152 652.313 219.431 639.37 216.774 626.627C216.657 626.255 216.534 625.886 216.432 625.51C214.278 617.574 213.058 609.124 211.806 600.998C203.516 547.207 211.515 490.871 238.773 443.292C260.612 405.17 293.063 371.658 332.45 351.581C349.102 343.092 366.35 337.192 384.354 332.33Z"/>
	<path fill="#E18B30" d="M256.231 598.645C259.8 598.572 263.475 598.958 266.698 600.593Q267.364 600.924 267.992 601.322Q268.62 601.72 269.205 602.179Q269.789 602.639 270.323 603.156Q270.858 603.673 271.336 604.242Q271.815 604.811 272.233 605.426Q272.651 606.041 273.004 606.695Q273.357 607.349 273.641 608.036Q273.925 608.724 274.138 609.436C275.238 613.045 274.919 617.144 273.031 620.439C270.535 624.797 266.479 626.807 261.777 627.965C257.763 628.215 254.399 628.218 250.768 626.155Q250.122 625.786 249.516 625.355Q248.91 624.924 248.35 624.435Q247.79 623.946 247.282 623.403Q246.773 622.861 246.322 622.27Q245.87 621.68 245.479 621.047Q245.088 620.414 244.762 619.746Q244.436 619.078 244.178 618.38Q243.92 617.683 243.733 616.963C242.746 613.272 243.161 609.21 245.088 605.886C247.596 601.557 251.558 599.776 256.231 598.645Z"/>
	<path fill="#68AC32" d="M464.556 532.437C472.06 536.831 508.282 561.541 512.977 562.27L513.39 561.776L516.795 559.823C518.578 569.49 517.55 589.471 517.288 599.989L513.417 597.775L513.415 597.409C513.145 597.309 512.885 597.176 512.604 597.109C510.781 596.679 467.225 625.672 460.725 629.237C464.382 621.716 470.219 614.847 475.016 607.974Q484.59 594.125 493.737 579.99C484.744 563.735 473.643 548.669 464.556 532.437Z"/>
	<path fill="#E18B30" d="M319.733 389.085C325.583 388.816 330.678 389.763 335.566 393.233C340.379 396.65 343.992 401.961 344.945 407.828C345.869 413.514 344.275 419.147 340.756 423.671C335.895 429.92 327.723 433.584 321.444 438.296C307.15 449.023 295.413 461.791 285.622 476.709C273.375 495.371 266.286 515.903 262.073 537.705Q259.972 548.127 259.506 558.749C259.224 564.242 259.551 570.233 258.415 575.589C257.854 578.233 256.958 580.015 255.423 582.234C253.976 583.717 252.268 584.929 250.238 585.439C247.648 586.09 245.084 585.548 242.843 584.137C238.861 581.63 236.282 577.005 235.314 572.489C233.527 564.157 233.138 554.772 232.896 546.252C231.799 507.661 242.255 471.951 263.925 440.034C274.505 424.452 301.315 392.612 319.733 389.085Z"/>
	<path fill="#F72400" d="M216.774 626.627C216.884 626.769 216.996 626.909 217.105 627.053C221.419 632.743 224.881 639.603 228.555 645.763C235.449 657.319 242.385 668.662 250.385 679.503Q252.304 682.113 254.288 684.675Q256.272 687.237 258.318 689.749Q260.364 692.261 262.472 694.721Q264.58 697.182 266.748 699.59Q268.916 701.997 271.143 704.35Q273.371 706.703 275.655 709.001Q277.94 711.298 280.281 713.538Q282.622 715.778 285.017 717.96Q287.413 720.141 289.862 722.263Q292.311 724.384 294.811 726.444Q297.312 728.504 299.863 730.502Q302.414 732.5 305.013 734.433Q307.613 736.367 310.259 738.236Q312.906 740.105 315.598 741.908Q318.29 743.711 321.026 745.446Q323.762 747.182 326.54 748.849Q329.318 750.517 332.137 752.115Q334.955 753.713 337.812 755.24Q340.669 756.768 343.563 758.225Q346.458 759.681 349.387 761.066Q352.316 762.45 355.279 763.762Q358.241 765.073 361.236 766.311Q364.23 767.549 367.254 768.712Q370.278 769.875 373.33 770.964Q376.381 772.052 379.459 773.064Q382.537 774.076 385.639 775.012Q388.741 775.947 391.865 776.806Q394.989 777.664 398.134 778.445Q401.278 779.226 404.441 779.929Q407.604 780.632 410.783 781.256Q413.962 781.881 417.156 782.426Q420.35 782.972 423.556 783.438C440.292 785.873 456.866 786.75 473.772 786.545C486.494 786.391 499.262 785.614 511.983 785.858Q511.895 809 512.051 832.142L475.495 832.148C467.908 832.146 460.222 832.377 452.653 831.855C409.247 828.867 369.27 812.413 332.385 790.197C329.409 787.57 325.651 785.341 322.429 782.98Q312.028 775.488 302.441 766.981C270.307 737.997 245.818 704.292 229.157 664.32C224.152 652.313 219.431 639.37 216.774 626.627Z"/>
	<path fill="#68AC32" d="M442.931 356.572C465.734 356.106 488.612 356.468 511.422 356.478L511.605 385.881C511.629 390.91 512.063 396.544 511.358 401.512C510.283 403.144 509.59 405.191 508.688 406.943C506.461 411.266 503.906 415.465 500.803 419.216C482.347 441.524 453.96 452.581 426.45 458.906C411.27 462.396 395.698 465.297 381.465 471.886C371.467 476.514 362.561 483.678 354.103 490.662C352.322 475.775 353.937 460.009 357.979 445.588C366.729 414.366 389.035 385.782 416.866 369.382Q424.381 364.937 432.353 361.377C435.557 359.947 439.14 358.773 442.163 357.026L442.931 356.572Z"/>
</svg>
