<?xml version="1.0" encoding="utf-8" ?>
<svg xmlns="http://www.w3.org/2000/svg" xmlns:xlink="http://www.w3.org/1999/xlink" width="1024" height="1024">
	<path fill="#C4A120" transform="scale(2 2)" d="M269.237 493.519C269.023 493.525 268.809 493.528 268.595 493.528L144.615 493.523C130.487 493.527 116.691 493.801 102.859 490.355C53.9031 478.159 18.6137 434.015 18.5686 383.493L18.5846 157.774C18.5843 138.633 17.6586 119.687 22.197 100.913C31.7238 61.5047 65.5367 29.8484 104.873 21.1617C120.926 17.6167 135.972 18.5145 152.273 18.5154L384.964 18.4803C413.16 18.4952 441.521 31.3335 461.26 51.1134C488.964 78.8739 493.241 108.16 493.227 144.943L493.221 280.1L493.228 373.965C493.233 381.852 493.298 389.733 492.485 397.591C487.103 449.606 443.984 490.448 391.77 493.37C385.868 493.7 379.899 493.532 373.988 493.529L271.065 493.543C270.455 493.542 269.846 493.532 269.237 493.519Z"/>
	<path fill="#918803" transform="scale(2 2)" d="M479.211 246.758C481.207 248.608 491.326 258.605 492.008 259.839C495.231 265.673 492.283 273.703 493.221 280.1L493.228 373.965C493.233 381.852 493.298 389.733 492.485 397.591C487.103 449.606 443.984 490.448 391.77 493.37C385.868 493.7 379.899 493.532 373.988 493.529L271.065 493.543C270.455 493.542 269.846 493.532 269.237 493.519C269.234 493.512 257.569 482.369 256.064 480.526C259.182 480.139 262.664 480.48 265.819 480.503L347.02 480.531C387.716 480.531 417.412 483.541 449.587 453.462C474.241 430.414 479.207 402.552 479.216 370.81L479.211 280.245C479.211 269.12 478.851 257.872 479.211 246.758Z"/>
	<path fill="#B80C00" transform="scale(2 2)" d="M261.033 128.713C289.133 130.639 303.054 134.783 327.632 146.092C332.064 148.85 336.646 151.235 340.888 154.303C435.943 223.034 423.113 364.007 314.072 411.622C295.77 419.615 277.01 423.844 256.963 423.55C256.782 418.752 256.948 413.889 256.95 409.083L256.963 380.976C284.526 381.785 315.613 366.982 334.366 347.474C354.876 326.139 365.345 301.279 364.758 271.124C363.644 213.828 313.953 167.228 256.963 168.338L256.963 128.713C258.315 128.718 259.682 128.76 261.033 128.713Z"/>
	<path fill="#ED4316" transform="scale(2 2)" d="M256.963 168.338C313.953 167.228 363.644 213.828 364.758 271.124C365.345 301.279 354.876 326.139 334.366 347.474C315.613 366.982 284.526 381.785 256.963 380.976C226.972 379.88 197.851 367.952 178.006 344.926C161.196 325.419 148.311 297.964 150.223 271.681C150.03 212.865 198.446 167.249 256.963 168.338L256.963 168.338Z"/>
	<path fill="#B80C00" transform="scale(2 2)" d="M270.377 217.216C271.929 222.01 271.831 232.466 270.987 237.376C270.958 232.99 269.913 228.727 269.751 224.368C269.662 221.987 270.359 219.64 270.377 217.216Z"/>
	<path fill="#3F0600" transform="scale(2 2)" d="M272.553 273.528L273.372 273.528C276.782 275.934 279.625 278.992 282.567 281.93L292.941 292.295C297.494 296.815 319.691 313.973 304.258 319.324C314.428 310.072 301.356 301.966 294.928 295.641L272.553 273.528Z"/>
	<defs>
		<linearGradient id="gradient_0" gradientUnits="userSpaceOnUse" x1="272.36328" y1="251.87596" x2="267.52499" y2="252.48198">
			<stop offset="0" stop-color="#7C2A00"/>
			<stop offset="1" stop-color="#673903"/>
		</linearGradient>
	</defs>
	<path fill="url(#gradient_0)" transform="scale(2 2)" d="M270.377 216.381L270.377 217.216C270.359 219.64 269.662 221.987 269.751 224.368C269.913 228.727 270.958 232.99 270.987 237.376L270.972 257.503C270.937 261.724 270.667 265.983 270.987 270.194C271.746 271.342 272.522 272.445 273.372 273.528L272.553 273.528C271.305 272.709 270.204 271.316 269.237 270.194C269.055 253.201 268.911 236.079 269.237 219.088C269.87 218.372 270.086 217.279 270.377 216.381Z"/>
	<path fill="#C4A120" transform="scale(2 2)" d="M244.237 270.194C244.672 266.792 244.264 262.583 244.259 259.088L244.225 233.93C244.216 226.146 243.521 204.746 256.963 206.065C258.715 206.565 260.367 207.05 261.992 207.886C265.244 207.872 268.964 214.038 270.377 216.381C270.086 217.279 269.87 218.372 269.237 219.088C268.911 236.079 269.055 253.201 269.237 270.194C270.204 271.316 271.305 272.709 272.553 273.528L294.928 295.641C301.356 301.966 314.428 310.072 304.258 319.324C293.95 324.909 288.65 315.14 281.286 307.886L257.395 284.24L257.395 284.24C256.943 283.272 257.021 281.968 256.963 280.908C255.639 281.278 254.33 281.599 253.13 282.294C250.454 279.897 247.553 278.183 244.237 276.787C244.135 274.58 243.994 272.397 244.237 270.194Z"/>
	<path fill="#B80C00" transform="scale(2 2)" d="M261.992 207.886C265.244 207.872 268.964 214.038 270.377 216.381C270.086 217.279 269.87 218.372 269.237 219.088C267.959 213.15 266.126 211.781 262.229 208.113L261.992 207.886Z"/>
	<path fill="#E8C73A" transform="scale(2 2)" d="M244.237 270.194C244.672 266.792 244.264 262.583 244.259 259.088L244.225 233.93C244.216 226.146 243.521 204.746 256.963 206.065C257.623 212.096 257.408 218.238 257.403 224.298L257.387 250.216C257.384 255.881 258.779 282.873 257.395 284.24C256.943 283.272 257.021 281.968 256.963 280.908C255.639 281.278 254.33 281.599 253.13 282.294C250.454 279.897 247.553 278.183 244.237 276.787C244.135 274.58 243.994 272.397 244.237 270.194Z"/>
	<path fill="#F67789" transform="scale(2 2)" d="M150.223 271.681C150.03 212.865 198.446 167.249 256.963 168.338C257.415 172.021 256.974 176.174 256.969 179.915L256.963 206.065C243.521 204.746 244.216 226.146 244.225 233.93L244.259 259.088C244.264 262.583 244.672 266.792 244.237 270.194L243.942 269.357C242.335 269.586 238.545 276.636 237.27 278.028C213.665 303.779 174.701 306.205 153.879 276.246C152.832 274.739 151.924 272.547 150.223 271.681Z"/>
	<path fill="#FBCCC4" transform="scale(2 2)" d="M196.47 232.049C216.704 230.225 222.629 255.906 202.929 261.777C181.891 265.279 177.294 236.463 196.47 232.049Z"/>
	<path fill="#E8C73A" transform="scale(2 2)" d="M255.302 480.526C251.555 480.709 247.753 480.557 244.001 480.541L142.52 480.525C135.914 480.529 129.173 480.959 122.599 480.345C87.9934 477.113 55.5304 455.707 40.8186 423.9C32.8538 406.68 31.8826 394.132 31.9036 375.985L31.9088 142.841C31.9101 135.72 31.7599 128.586 32.2761 121.478C35.755 73.5665 74.1898 36.2572 121.912 32.2429C133.981 31.2277 146.491 32.2378 158.64 32.2405L373.463 32.2454C400.917 32.2426 417.874 33.5253 441.457 51.74C468.358 72.5175 479.506 99.9359 479.22 132.903L479.208 210.288C479.209 214.028 479.533 245.892 479.211 246.758C475.137 241.91 470.395 237.504 465.916 233.031L381.409 148.556C373.613 140.844 364.576 133.074 357.172 125.336C349.383 137.596 341.717 143.247 327.632 146.092C303.054 134.783 289.133 130.639 261.033 128.713C259.682 128.76 258.315 128.718 256.963 128.713L256.963 168.338L256.963 168.338C198.446 167.249 150.03 212.865 150.223 271.681C148.311 297.964 161.196 325.419 178.006 344.926C197.851 367.952 226.972 379.88 256.963 380.976L256.95 409.083C256.948 413.889 256.782 418.752 256.963 423.55C232.892 424.031 209.127 417.687 187.793 406.791C181.858 403.76 176.455 399.745 170.447 396.875C174.047 401.599 178.631 405.764 182.909 409.876L227.616 453.666C236.887 462.571 246.261 471.388 255.302 480.526Z"/>
	<path fill="#4F9203" transform="scale(2 2)" d="M146.942 97.8362C159.267 105.096 172.043 107.751 185.889 102.519C203.814 95.7456 220.717 88.2809 239.479 101.067C241.568 102.491 245.553 107.09 247.458 107.687C246.841 114.874 249.029 122.03 248.695 128.713C223.659 129.285 202.912 136.227 181.116 148.094C159.103 136.182 150.763 123.391 146.942 97.8362Z"/>
	<path fill="#407A01" transform="scale(2 2)" d="M273.372 57.982C276.934 61.9063 280.705 65.6601 284.417 69.4437C289.212 74.3776 309.806 93.4305 311.346 97.8362C315.812 98.6559 319.796 100.93 324.061 102.376C337.178 106.824 354.156 105.371 363.991 94.7437C364.167 107.012 362.113 114.287 357.172 125.336C349.383 137.596 341.717 143.247 327.632 146.092C303.054 134.783 289.133 130.639 261.033 128.713C259.682 128.76 258.315 128.718 256.963 128.713C254.212 128.577 251.449 128.672 248.695 128.713C249.029 122.03 246.841 114.874 247.458 107.687C249.43 88.368 259.941 71.5094 273.372 57.982Z"/>
	<path fill="#C4A120" transform="scale(2 2)" d="M284.417 69.4437C289.212 74.3776 309.806 93.4305 311.346 97.8362C293.183 90.4095 274.389 95.6835 262.827 111.216C258.936 100.328 276.464 78.2798 284.417 69.4437Z"/>
	<path fill="#E61B00" transform="scale(2 2)" d="M248.695 128.713C251.449 128.672 254.212 128.577 256.963 128.713L256.963 168.338L256.963 168.338C198.446 167.249 150.03 212.865 150.223 271.681C148.311 297.964 161.196 325.419 178.006 344.926C197.851 367.952 226.972 379.88 256.963 380.976L256.95 409.083C256.948 413.889 256.782 418.752 256.963 423.55C232.892 424.031 209.127 417.687 187.793 406.791C181.858 403.76 176.455 399.745 170.447 396.875C131.753 366.407 107.954 325.529 108.006 275.249C108.062 221.07 134.358 175.856 181.116 148.094C202.912 136.227 223.659 129.285 248.695 128.713Z"/>
</svg>
