<?xml version="1.0" encoding="utf-8" ?>
<svg xmlns="http://www.w3.org/2000/svg" xmlns:xlink="http://www.w3.org/1999/xlink" width="1024" height="1024">
	<path fill="#FEFEFE" d="M0 0L1024 0L1024 1024L0 1024L0 0Z"/>
	<path fill="#E9C83B" d="M489.108 986.713L486.208 986.752C437.127 987.325 388.018 987.046 338.935 986.994L285.93 986.98C271.962 986.98 257.86 987.232 243.946 985.847C190.985 980.575 142.825 954.315 105.214 917.486C75.0612 887.96 51.7825 847.225 42.1679 806.063C35.3045 776.681 36.4938 747.088 36.4724 717.156L36.5992 627.418L36.0837 271.301C35.5925 218.334 54.9639 165.153 87.8525 123.925C92.0743 118.633 96.341 113.196 101.109 108.381C136.294 72.8468 181.901 47.67 231.439 39.5923C248.261 36.8494 265.181 36.2584 282.191 36.1438L636.848 36.3441L722.147 36.415C746.038 36.4096 770.806 34.8876 794.335 39.759C842.899 49.8137 883.843 69.326 919.227 104.377C951.753 136.596 973.27 178.45 983.284 222.874C988.505 246.038 988.293 269.608 988.251 293.201L988.232 345.662L988.453 554.916C985.376 548.677 939.48 504.71 931.112 496.339L846.186 410.356C831.438 395.176 817.094 379.625 802.215 364.556L754.205 315.954C744.178 305.743 733.412 295.466 724.53 284.24C720.28 285.59 716.51 287.85 712.366 289.317L711.762 288.98C715.068 286.786 718.984 285.242 722.635 283.706C720.03 282.765 717.472 281.45 714.716 281.136C707.506 280.316 700.449 278.517 693.22 277.794C641.566 272.63 594.976 276.911 547.465 299.229C536.558 304.353 524.256 309.684 514.782 317.213C514.632 317.333 514.488 317.46 514.341 317.584L513.124 317.981L511.027 318.29L510.667 318.353L508.888 317.781L508.806 318.361C454.494 327.031 388.935 372.027 356.814 416.387C350.829 424.653 345.012 433.355 340.185 442.356C337.942 446.539 336.468 451.711 333.913 455.612C334.21 450.231 335.231 444.766 336.065 439.444C339.528 417.34 345.786 397.03 356.358 377.263C366.728 359.902 380.722 345.344 397.141 333.648C389.044 331.01 362.375 321.667 357.06 316.984L357.016 316.215L358.394 315.595Q346.954 310.933 335.882 305.455Q324.81 299.977 314.164 293.711C283.562 315.245 258.59 340.639 237.523 371.544C232.147 379.43 226.147 388.216 222.392 396.989Q220.487 400.496 218.669 404.05Q216.852 407.603 215.123 411.2Q213.395 414.798 211.756 418.437Q210.117 422.076 208.569 425.755Q207.02 429.434 205.564 433.15Q204.108 436.866 202.744 440.617Q201.381 444.368 200.11 448.152Q198.84 451.936 197.664 455.75Q196.489 459.564 195.408 463.406Q194.327 467.248 193.342 471.116Q192.357 474.983 191.468 478.874Q190.579 482.765 189.787 486.677Q188.995 490.589 188.3 494.519Q187.605 498.45 187.008 502.396Q186.411 506.342 185.913 510.302Q185.414 514.262 185.013 518.233Q184.613 522.204 184.311 526.184Q184.01 530.164 183.807 534.15Q183.604 538.136 183.5 542.126Q183.396 546.116 183.391 550.107Q183.386 554.098 183.481 558.089Q183.575 562.079 183.768 566.065Q183.961 570.052 184.253 574.032Q184.546 578.013 184.936 581.985Q185.327 585.957 185.816 589.918Q186.306 593.879 186.893 597.827Q187.48 601.775 188.166 605.707Q188.851 609.639 189.633 613.552Q190.416 617.466 191.295 621.359Q192.175 625.253 193.151 629.123Q194.126 632.993 195.198 636.837Q196.269 640.682 197.436 644.499C209.83 685.589 232.382 725.486 260.395 757.945C272.55 772.028 286.272 785.158 300.044 797.648C301.973 801.331 325.141 822.899 329.219 826.976L442.393 940.218C453.644 951.367 465.362 962.031 476.597 973.203C480.678 977.262 486.209 981.796 489.108 986.713Z"/>
	<path fill="#124D02" d="M524.019 155.966C526.304 153.087 528.131 151.879 531.849 151.457C540.723 150.449 551.827 156.29 558.388 161.876C561.334 164.383 563.826 167.161 566.218 170.189C566.625 172.78 567.268 175.458 566.61 178.052C553.793 176.734 551.027 176.241 538.974 171.33C532.345 166.792 528.256 162.816 524.019 155.966Z"/>
	<path fill="#4C9502" d="M524.019 155.966C528.256 162.816 532.345 166.792 538.974 171.33C533.35 184.505 527.27 197.573 522.551 211.109C514.785 233.388 510.986 258.207 510.475 281.751C510.209 293.975 510.856 306.088 511.027 318.29L510.667 318.353L508.888 317.781C508.735 317.608 508.598 317.42 508.43 317.263C504.44 313.526 494.013 308.53 488.976 305.739Q487.007 304.637 485.018 303.573Q483.028 302.508 481.019 301.482Q479.009 300.456 476.98 299.468Q474.952 298.48 472.905 297.531Q470.858 296.582 468.793 295.672Q466.728 294.762 464.647 293.891Q462.565 293.02 460.467 292.19Q458.369 291.359 456.256 290.568Q454.143 289.777 452.015 289.027Q449.887 288.277 447.745 287.567Q445.603 286.857 443.448 286.188Q441.293 285.519 439.126 284.892Q436.959 284.264 434.78 283.678Q432.601 283.091 430.411 282.546Q428.222 282.001 426.022 281.498Q423.823 280.995 421.614 280.534Q419.405 280.073 417.188 279.654Q414.971 279.235 412.746 278.858Q410.522 278.481 408.29 278.147Q406.059 277.813 403.821 277.521Q401.584 277.229 399.341 276.98Q397.099 276.73 394.852 276.524Q392.605 276.317 390.354 276.154Q388.104 275.99 385.851 275.869Q383.598 275.748 381.343 275.67Q379.088 275.592 376.832 275.557Q374.576 275.522 372.319 275.53Q370.063 275.538 367.807 275.589Q365.551 275.639 363.297 275.733Q361.042 275.827 358.79 275.963Q356.538 276.1 354.289 276.279Q352.039 276.459 349.794 276.681C340.441 277.609 331.188 278.812 322.017 280.92C316.871 282.103 306.045 285.794 301.471 285.955C301.163 285.965 300.854 285.964 300.546 285.968C300.659 285.452 300.578 285.474 300.941 285.099C303.219 282.741 310.895 279.779 314.126 278.226C343.302 264.198 375.237 255.096 407.803 254.642C435.89 254.25 472.197 260.232 492.763 280.401C492.6 275.285 493.205 269.898 493.54 264.788C495.511 234.763 501.483 200.126 514.18 172.751C516.879 166.931 520.625 161.412 524.019 155.966Z"/>
	<path fill="#70AB12" d="M300.546 285.968C300.854 285.964 301.163 285.965 301.471 285.955C306.045 285.794 316.871 282.103 322.017 280.92C331.188 278.812 340.441 277.609 349.794 276.681Q352.039 276.459 354.289 276.279Q356.538 276.1 358.79 275.963Q361.042 275.827 363.297 275.733Q365.551 275.639 367.807 275.589Q370.063 275.538 372.319 275.53Q374.576 275.522 376.832 275.557Q379.088 275.592 381.343 275.67Q383.598 275.748 385.851 275.869Q388.104 275.99 390.354 276.154Q392.605 276.318 394.852 276.524Q397.099 276.731 399.341 276.98Q401.584 277.229 403.821 277.521Q406.059 277.813 408.29 278.147Q410.522 278.481 412.746 278.858Q414.971 279.235 417.188 279.654Q419.405 280.073 421.614 280.534Q423.823 280.995 426.022 281.498Q428.222 282.001 430.411 282.546Q432.601 283.091 434.78 283.678Q436.959 284.264 439.126 284.892Q441.293 285.519 443.448 286.188Q445.603 286.857 447.745 287.567Q449.887 288.277 452.015 289.027Q454.143 289.777 456.256 290.568Q458.369 291.359 460.467 292.19Q462.565 293.02 464.647 293.891Q466.728 294.762 468.793 295.672Q470.858 296.582 472.905 297.531Q474.952 298.48 476.98 299.468Q479.009 300.456 481.019 301.482Q483.028 302.508 485.018 303.573Q487.007 304.637 488.976 305.739C494.013 308.53 504.44 313.526 508.43 317.263C508.598 317.42 508.735 317.608 508.888 317.781L508.806 318.361C454.494 327.031 388.935 372.027 356.814 416.387C350.829 424.653 345.012 433.355 340.185 442.356C337.942 446.539 336.468 451.711 333.913 455.612C334.21 450.231 335.231 444.766 336.065 439.444C339.528 417.34 345.786 397.03 356.358 377.263C366.728 359.902 380.722 345.344 397.141 333.648C389.044 331.01 362.375 321.667 357.06 316.984L357.016 316.215L358.394 315.595Q346.954 310.933 335.882 305.455Q324.81 299.977 314.164 293.711C309.571 291.253 305.072 288.552 300.546 285.968Z"/>
	<path fill="#E61B00" d="M397.141 333.648C389.044 331.01 362.375 321.667 357.06 316.984L357.016 316.215L358.394 315.595C373.358 321.582 388.603 325.56 403.914 330.462C401.659 331.449 399.227 332.337 397.141 333.648Z"/>
	<path fill="#196101" d="M566.218 170.189C575.16 177.547 654.584 255.63 657.137 260.716C675.412 265.067 708.935 274.694 724.53 284.24C720.28 285.59 716.51 287.85 712.366 289.317L711.762 288.98C715.068 286.786 718.984 285.242 722.635 283.706C720.03 282.765 717.472 281.45 714.716 281.136C707.506 280.316 700.449 278.517 693.22 277.794C641.566 272.63 594.976 276.911 547.465 299.229C536.558 304.353 524.256 309.684 514.782 317.213C514.632 317.333 514.488 317.46 514.341 317.584L513.124 317.981L511.027 318.29C510.856 306.088 510.209 293.975 510.475 281.751C510.986 258.207 514.785 233.388 522.551 211.109C527.27 197.573 533.35 184.505 538.974 171.33C551.027 176.241 553.793 176.734 566.61 178.052C567.268 175.458 566.625 172.78 566.218 170.189Z"/>
	<path fill="#C4A120" d="M566.218 170.189C575.16 177.547 654.584 255.63 657.137 260.716C650.378 259.487 643.553 258.33 636.726 257.555C597.109 253.059 557.219 256.369 524.899 282.143C527.646 256.959 534.892 230.629 547.013 208.277C552.752 197.694 559.616 187.832 566.61 178.052C567.268 175.458 566.625 172.78 566.218 170.189Z"/>
	<path fill="#EE4316" d="M514.341 317.584C514.488 317.46 514.632 317.333 514.782 317.213C524.256 309.684 536.558 304.353 547.465 299.229C594.976 276.911 641.566 272.63 693.22 277.794C700.449 278.517 707.506 280.316 714.716 281.136C717.472 281.45 720.03 282.765 722.635 283.706C718.984 285.242 715.068 286.786 711.762 288.98L712.366 289.317C716.51 287.85 720.28 285.59 724.53 284.24C733.412 295.466 744.178 305.743 754.205 315.954L802.215 364.556C817.094 379.625 831.438 395.176 846.186 410.356L931.112 496.339C939.48 504.71 985.376 548.677 988.453 554.916L988.41 683.154L988.499 727.711C988.533 739.981 988.717 752.229 987.785 764.474C983.569 819.816 961.038 873.886 921.739 913.58C874.853 960.938 816.015 986.543 749.186 986.835L586.68 986.681C554.169 986.668 521.613 987.347 489.108 986.713C486.209 981.796 480.678 977.262 476.597 973.203C465.362 962.031 453.644 951.367 442.393 940.218L329.219 826.976C325.141 822.899 301.973 801.331 300.044 797.648C286.272 785.158 272.55 772.028 260.395 757.945C232.382 725.486 209.83 685.589 197.436 644.499Q196.269 640.682 195.198 636.837Q194.126 632.993 193.151 629.123Q192.175 625.253 191.295 621.359Q190.416 617.466 189.633 613.552Q188.851 609.639 188.166 605.707Q187.48 601.775 186.893 597.827Q186.306 593.879 185.816 589.918Q185.327 585.957 184.936 581.985Q184.546 578.013 184.253 574.032Q183.961 570.052 183.768 566.065Q183.575 562.079 183.481 558.089Q183.386 554.099 183.391 550.107Q183.396 546.116 183.5 542.126Q183.604 538.136 183.807 534.15Q184.01 530.164 184.311 526.184Q184.613 522.204 185.013 518.233Q185.414 514.262 185.913 510.302Q186.411 506.342 187.008 502.396Q187.605 498.45 188.3 494.519Q188.995 490.589 189.787 486.677Q190.579 482.765 191.468 478.874Q192.357 474.983 193.342 471.116Q194.327 467.248 195.408 463.406Q196.489 459.564 197.664 455.75Q198.84 451.936 200.11 448.152Q201.381 444.368 202.744 440.617Q204.108 436.866 205.564 433.15Q207.02 429.434 208.569 425.755Q210.117 422.076 211.756 418.437Q213.395 414.798 215.123 411.2Q216.852 407.603 218.669 404.05Q220.487 400.496 222.392 396.989C226.147 388.216 232.147 379.43 237.523 371.544C258.59 340.639 283.562 315.245 314.164 293.711Q324.81 299.977 335.882 305.455Q346.954 310.933 358.394 315.595L357.016 316.215L357.06 316.984C362.375 321.667 389.044 331.01 397.141 333.648C380.722 345.344 366.728 359.902 356.358 377.263C345.786 397.03 339.528 417.34 336.065 439.444C335.231 444.766 334.21 450.231 333.913 455.612C336.468 451.711 337.942 446.539 340.185 442.356C345.012 433.355 350.829 424.653 356.814 416.387C388.935 372.027 454.494 327.031 508.806 318.361L508.888 317.781L510.667 318.353L511.027 318.29L513.124 317.981L514.341 317.584Z"/>
	<path fill="#F7788A" d="M361.797 466.9C361.562 487.872 354.82 510.359 340.562 526.126C326.123 542.092 305.154 553.236 283.502 554.203C269.676 554.821 255.794 550.873 245.547 541.269C232.389 528.935 227.945 509.134 227.527 491.762C226.681 456.523 242.281 418.98 266.739 393.66C282.141 377.716 302.419 364.026 325.277 363.772C338.847 363.622 346.797 367.968 356.358 377.263C345.786 397.03 339.528 417.34 336.065 439.444C335.231 444.766 334.21 450.231 333.913 455.612L332.923 462.932C339.597 460.904 345.943 457.361 352.612 455.603C351.349 460.543 350.455 465.576 349.482 470.58C353.565 469.303 357.643 467.929 361.797 466.9Z"/>
	<path fill="#A7C94F" d="M511.027 318.29L513.124 317.981C525.491 328.857 536.518 343.904 544.888 358.075C549.792 366.376 554.235 375.115 559.762 383.018L559.771 383.424C559.977 389.882 561.603 396.19 561.557 402.711C561.32 435.726 547.461 467.171 530.437 494.796C527.539 499.497 524.597 504.211 521.401 508.716C518.622 512.632 514.935 516.654 512.908 520.97L512.709 521.017L512.233 522.5L511.233 522.299C505.33 517.493 500.244 508.427 496.293 501.962C479.962 475.242 467.68 448.779 463.572 417.445C439.954 437.167 391.795 458.081 361.937 466.608C361.053 462.018 361.887 456.137 362.003 451.415C358.904 452.792 355.613 454.04 352.612 455.603C345.943 457.361 339.597 460.904 332.923 462.932L333.913 455.612C336.468 451.711 337.942 446.539 340.185 442.356C345.012 433.355 350.829 424.653 356.814 416.387C388.935 372.027 454.494 327.031 508.806 318.361L508.888 317.781L510.667 318.353L511.027 318.29Z"/>
	<path fill="#E61B00" d="M465.253 383.408L465.188 384.383C464.929 387.926 464.089 391.501 463.579 395.022C462.459 402.75 462.483 409.733 463.572 417.445C439.954 437.167 391.795 458.081 361.937 466.608C361.053 462.018 361.887 456.137 362.003 451.415C398.963 435.535 438.413 413.894 465.253 383.408Z"/>
	<path fill="#407C01" d="M511.027 318.29L513.124 317.981C525.491 328.857 536.518 343.904 544.888 358.075C549.792 366.376 554.235 375.115 559.762 383.018L559.771 383.424C559.977 389.882 561.603 396.19 561.557 402.711C561.32 435.726 547.461 467.171 530.437 494.796C527.539 499.497 524.597 504.211 521.401 508.716C518.622 512.632 514.935 516.654 512.908 520.97L512.709 521.017C511.535 503.154 512.409 482.607 512.39 464.486L512.047 363.195L512.039 337.654C512.083 331.855 513.014 324.44 511.734 318.853L510.667 318.353L511.027 318.29Z"/>
	<path fill="#E61B00" d="M514.341 317.584C514.488 317.46 514.632 317.333 514.782 317.213C524.256 309.684 536.558 304.353 547.465 299.229C594.976 276.911 641.566 272.63 693.22 277.794C700.449 278.517 707.506 280.316 714.716 281.136C717.472 281.45 720.03 282.765 722.635 283.706C718.984 285.242 715.068 286.786 711.762 288.98L712.366 289.317C709.82 290.791 707.22 291.936 704.518 293.086C694.235 296.681 683.725 302.099 674.115 307.279C676.911 310.789 679.657 314.652 682.995 317.662C694.582 329.149 705.157 342.714 714.874 355.825C724.251 368.478 733.42 381.259 741.147 395.009C762.904 433.721 775.52 480.313 775.701 524.735C775.749 536.451 775.563 548.166 774.286 559.822C767.152 624.966 736.073 682.493 690.242 728.58Q688.386 730.432 686.496 732.249Q684.606 734.065 682.682 735.847Q680.759 737.629 678.803 739.375Q676.847 741.121 674.86 742.831Q672.872 744.541 670.853 746.213Q668.834 747.886 666.785 749.521Q664.736 751.157 662.657 752.754Q660.578 754.351 658.469 755.91Q656.361 757.468 654.225 758.988Q652.088 760.507 649.924 761.987Q647.76 763.467 645.568 764.907Q643.377 766.347 641.16 767.746Q638.943 769.145 636.7 770.503Q634.457 771.861 632.19 773.177Q629.923 774.494 627.631 775.768Q625.34 777.042 623.026 778.274Q620.712 779.506 618.375 780.695Q616.038 781.884 613.68 783.03Q611.322 784.176 608.943 785.278Q606.564 786.38 604.165 787.438Q601.767 788.497 599.349 789.51Q596.931 790.524 594.495 791.493Q592.058 792.462 589.605 793.386Q587.151 794.31 584.681 795.188Q582.211 796.067 579.725 796.9Q577.239 797.733 574.738 798.52Q572.237 799.307 569.722 800.047Q567.207 800.788 564.679 801.482Q562.15 802.176 559.61 802.824Q557.069 803.471 554.517 804.072Q551.965 804.672 549.402 805.226Q546.84 805.779 544.267 806.285C534.251 808.321 523.221 810.914 512.988 811.099C512.909 832.141 512.804 853.217 513.062 874.257C449.766 873.939 390.684 856.811 336.858 823.496C329.677 819.052 322.533 814.314 315.763 809.26C310.728 805.5 305.766 801.189 300.438 797.887L300.044 797.648C286.272 785.158 272.55 772.028 260.395 757.945C232.382 725.486 209.83 685.589 197.436 644.499Q196.269 640.682 195.198 636.837Q194.126 632.993 193.151 629.123Q192.175 625.253 191.295 621.359Q190.416 617.466 189.633 613.552Q188.851 609.639 188.166 605.707Q187.48 601.775 186.893 597.827Q186.306 593.879 185.816 589.918Q185.327 585.957 184.936 581.985Q184.546 578.013 184.253 574.032Q183.961 570.052 183.768 566.065Q183.575 562.079 183.481 558.089Q183.386 554.099 183.391 550.107Q183.396 546.116 183.5 542.126Q183.604 538.136 183.807 534.15Q184.01 530.164 184.311 526.184Q184.613 522.204 185.013 518.233Q185.414 514.262 185.913 510.302Q186.411 506.342 187.008 502.396Q187.605 498.45 188.3 494.519Q188.995 490.589 189.787 486.677Q190.579 482.765 191.468 478.874Q192.357 474.983 193.342 471.116Q194.327 467.248 195.408 463.406Q196.489 459.564 197.664 455.75Q198.84 451.936 200.11 448.152Q201.381 444.368 202.744 440.617Q204.108 436.866 205.564 433.15Q207.02 429.434 208.569 425.755Q210.117 422.076 211.756 418.437Q213.395 414.798 215.123 411.2Q216.852 407.603 218.669 404.05Q220.487 400.496 222.392 396.989L223.122 397.314C220.706 403.066 217.461 408.105 214.913 413.823Q209.126 426.652 204.238 439.851Q199.35 453.049 195.385 466.553C190.733 482.313 188.127 498.838 186.425 515.157C181.022 566.962 186.511 618.982 206.313 667.44Q207.608 670.615 208.969 673.762Q210.33 676.909 211.756 680.027Q213.182 683.145 214.673 686.232Q216.164 689.32 217.719 692.376Q219.274 695.432 220.892 698.455Q222.51 701.478 224.19 704.466Q225.871 707.455 227.613 710.408Q229.356 713.36 231.159 716.276Q232.963 719.193 234.827 722.07Q236.69 724.948 238.614 727.787Q240.537 730.625 242.519 733.423Q244.501 736.221 246.541 738.976Q248.581 741.732 250.678 744.445Q252.774 747.158 254.927 749.827Q257.08 752.495 259.288 755.118Q261.496 757.742 263.758 760.318Q266.02 762.895 268.335 765.424Q270.65 767.953 273.017 770.433Q275.385 772.913 277.803 775.344Q280.222 777.774 282.69 780.154Q285.159 782.534 287.676 784.861Q290.194 787.189 292.759 789.464Q295.324 791.738 297.937 793.959Q300.549 796.18 303.207 798.346Q305.865 800.512 308.567 802.622Q311.269 804.733 314.015 806.786Q316.761 808.84 319.549 810.835Q322.337 812.831 325.165 814.769Q327.994 816.706 330.863 818.584Q333.731 820.462 336.638 822.28Q339.545 824.098 342.49 825.855Q345.434 827.613 348.414 829.308C358.22 834.922 369.033 841.135 379.43 845.462C417.939 861.488 456.323 871.738 498.212 872.966C501.791 873.071 508.463 874.73 511.581 873.466C513.716 868.837 511.742 834.575 511.74 826.697C511.74 822.225 512.843 816.439 511.928 812.189C504.959 812.198 497.96 813.114 490.997 813.431C483.148 813.788 475.12 813.606 467.273 813.252C392.261 809.868 327.399 784.169 273.898 730.703Q269.046 725.771 264.463 720.588Q259.879 715.405 255.578 709.986Q251.277 704.566 247.269 698.926Q243.262 693.286 239.56 687.441C209.258 640.262 194.879 587.378 194.964 531.459C195.011 500.594 197.891 464.397 209.934 435.713L210.48 435.514C207.986 443.028 205.106 450.552 203.254 458.279C188.165 521.232 193.73 598.402 222.915 656.564Q226.518 663.914 230.513 671.059Q234.508 678.203 238.885 685.12Q243.261 692.038 248.005 698.708Q252.75 705.379 257.848 711.783C290.437 752.034 336.197 782.513 385.264 798.733C415.913 808.864 450.496 813.258 482.712 812.972C492.841 812.882 502.956 812.032 513.048 811.229L513.079 637.809C513.004 598.873 513.4 559.9 512.908 520.97C514.935 516.654 518.622 512.632 521.401 508.716C524.597 504.211 527.539 499.497 530.437 494.796C547.461 467.171 561.32 435.726 561.557 402.711C561.603 396.19 559.977 389.882 559.771 383.424L559.762 383.018C554.235 375.115 549.792 366.376 544.888 358.075C536.518 343.904 525.491 328.857 513.124 317.981L514.341 317.584Z"/>
	<path fill="#407C01" d="M514.341 317.584C514.488 317.46 514.632 317.333 514.782 317.213C524.256 309.684 536.558 304.353 547.465 299.229C594.976 276.911 641.566 272.63 693.22 277.794C700.449 278.517 707.506 280.316 714.716 281.136C717.472 281.45 720.03 282.765 722.635 283.706C718.984 285.242 715.068 286.786 711.762 288.98L712.366 289.317C709.82 290.791 707.22 291.936 704.518 293.086C694.235 296.681 683.725 302.099 674.115 307.279C673.242 307.709 672.131 308.107 671.361 308.684L672.297 309.219L673.518 308.59C676.122 310.436 679.12 314.05 680.744 316.806C675.706 321.39 642.101 335.628 635.109 336.734Q636.593 338.048 638.045 339.398Q639.496 340.748 640.915 342.133Q642.333 343.517 643.718 344.936Q645.103 346.354 646.453 347.806Q647.803 349.257 649.117 350.741Q650.431 352.225 651.71 353.74Q652.988 355.255 654.229 356.801Q655.47 358.347 656.673 359.922Q657.877 361.497 659.042 363.101Q660.206 364.705 661.332 366.337Q662.458 367.968 663.544 369.627Q664.63 371.285 665.675 372.969Q666.721 374.653 667.725 376.362Q668.729 378.071 669.692 379.804Q670.655 381.537 671.575 383.292Q672.496 385.048 673.374 386.825Q674.252 388.603 675.086 390.401Q675.921 392.199 676.711 394.017Q677.502 395.834 678.249 397.671Q678.995 399.507 679.697 401.361Q680.399 403.215 681.056 405.085Q681.713 406.955 682.324 408.841Q682.936 410.726 683.501 412.626Q684.067 414.526 684.586 416.439Q685.106 418.352 685.579 420.277Q686.052 422.202 686.478 424.138Q686.904 426.074 687.284 428.02Q687.663 429.965 687.995 431.92Q688.327 433.874 688.612 435.836Q688.897 437.797 689.134 439.765Q689.371 441.733 689.561 443.707Q689.75 445.68 689.892 447.657C690.16 451.767 690.176 455.99 689.813 460.095C682.306 459.705 669.024 452.948 661.861 449.804C633.791 437.484 605.198 424.089 581.606 404.125C573.792 397.512 567.118 390.066 559.762 383.018C554.235 375.115 549.792 366.376 544.888 358.075C536.518 343.904 525.491 328.857 513.124 317.981L514.341 317.584Z"/>
	<path fill="#B90C00" d="M671.361 308.684L672.297 309.219L673.518 308.59C676.122 310.436 679.12 314.05 680.744 316.806C675.706 321.39 642.101 335.628 635.109 336.734C631.148 333.577 627.024 330.661 623.122 327.417C639.609 323.32 655.921 315.683 671.361 308.684Z"/>
	<path fill="#4C9502" d="M514.341 317.584C567.859 325.597 628.79 366.362 660.774 409.609C667.925 419.277 688.281 449.719 689.813 460.095C682.306 459.705 669.024 452.948 661.861 449.804C633.791 437.484 605.198 424.089 581.606 404.125C573.792 397.512 567.118 390.066 559.762 383.018C554.235 375.115 549.792 366.376 544.888 358.075C536.518 343.904 525.491 328.857 513.124 317.981L514.341 317.584Z"/>
	<path fill="#C4A120" d="M724.53 284.24C733.412 295.466 744.178 305.743 754.205 315.954L802.215 364.556C817.094 379.625 831.438 395.176 846.186 410.356L931.112 496.339C939.48 504.71 985.376 548.677 988.453 554.916L988.41 683.154L988.499 727.711C988.533 739.981 988.717 752.229 987.785 764.474C983.569 819.816 961.038 873.886 921.739 913.58C874.853 960.938 816.015 986.543 749.186 986.835L586.68 986.681C554.169 986.668 521.613 987.347 489.108 986.713C486.209 981.796 480.678 977.262 476.597 973.203C465.362 962.031 453.644 951.367 442.393 940.218L329.219 826.976C325.141 822.899 301.973 801.331 300.044 797.648L300.438 797.887C305.766 801.189 310.728 805.5 315.763 809.26C322.533 814.314 329.677 819.052 336.858 823.496C390.684 856.811 449.766 873.939 513.062 874.257C512.804 853.217 512.909 832.141 512.988 811.099C523.221 810.914 534.251 808.321 544.267 806.285Q546.84 805.779 549.402 805.226Q551.965 804.672 554.517 804.072Q557.069 803.471 559.61 802.824Q562.15 802.176 564.679 801.482Q567.207 800.788 569.722 800.047Q572.237 799.307 574.738 798.52Q577.239 797.733 579.725 796.9Q582.211 796.067 584.681 795.188Q587.151 794.31 589.605 793.386Q592.058 792.462 594.495 791.493Q596.931 790.524 599.349 789.51Q601.767 788.497 604.165 787.438Q606.564 786.38 608.943 785.278Q611.322 784.176 613.68 783.03Q616.038 781.884 618.375 780.695Q620.712 779.506 623.026 778.274Q625.34 777.042 627.631 775.768Q629.923 774.494 632.19 773.177Q634.457 771.861 636.7 770.503Q638.943 769.145 641.16 767.746Q643.377 766.347 645.568 764.907Q647.76 763.467 649.924 761.987Q652.088 760.507 654.224 758.988Q656.361 757.468 658.469 755.91Q660.578 754.351 662.657 752.754Q664.736 751.157 666.785 749.521Q668.834 747.886 670.853 746.213Q672.872 744.541 674.86 742.831Q676.847 741.121 678.803 739.375Q680.759 737.629 682.682 735.847Q684.606 734.065 686.496 732.249Q688.386 730.432 690.242 728.58C736.073 682.493 767.152 624.966 774.286 559.822C775.563 548.166 775.749 536.451 775.701 524.735C775.52 480.313 762.904 433.721 741.147 395.009C733.42 381.259 724.251 368.478 714.874 355.825C705.157 342.714 694.582 329.149 682.995 317.662C679.657 314.652 676.911 310.789 674.115 307.279C683.725 302.099 694.235 296.681 704.518 293.086C707.22 291.936 709.82 290.791 712.366 289.317C716.51 287.85 720.28 285.59 724.53 284.24Z"/>
	<path fill="#B90C00" d="M704.518 293.086C708.63 295.761 712.786 298.382 716.721 301.313Q719.825 303.639 722.871 306.042Q725.917 308.444 728.902 310.922Q731.887 313.399 734.81 315.949Q737.733 318.5 740.591 321.122Q743.45 323.744 746.243 326.437Q749.036 329.129 751.761 331.89Q754.486 334.65 757.142 337.478Q759.798 340.305 762.383 343.198Q764.968 346.09 767.481 349.046Q769.993 352.001 772.432 355.018Q774.87 358.035 777.233 361.112Q779.596 364.189 781.882 367.323Q784.168 370.457 786.375 373.647Q788.583 376.837 790.71 380.08Q792.838 383.324 794.885 386.619Q796.931 389.915 798.896 393.26Q800.86 396.605 802.741 399.998Q804.622 403.391 806.418 406.829Q808.214 410.267 809.924 413.749Q811.634 417.231 813.258 420.754Q814.881 424.277 816.417 427.84Q817.952 431.402 819.399 435.001Q820.846 438.601 822.203 442.235Q823.56 445.869 824.827 449.536Q826.093 453.202 827.268 456.899Q828.444 460.596 829.527 464.321Q830.61 468.046 831.601 471.796Q832.591 475.547 833.489 479.321Q834.386 483.095 835.189 486.89Q835.993 490.685 836.702 494.499Q837.411 498.313 838.026 502.143Q838.64 505.974 839.159 509.818Q839.693 513.595 840.134 517.385Q840.574 521.174 840.922 524.973Q841.27 528.772 841.525 532.579Q841.779 536.385 841.941 540.197Q842.102 544.008 842.17 547.823Q842.237 551.637 842.212 555.452Q842.186 559.267 842.067 563.08Q841.947 566.893 841.735 570.702Q841.522 574.511 841.216 578.314Q840.91 582.116 840.511 585.911Q840.112 589.705 839.62 593.488Q839.127 597.271 838.543 601.041Q837.958 604.811 837.281 608.565Q836.604 612.319 835.836 616.056Q835.067 619.793 834.207 623.51Q833.347 627.226 832.396 630.921Q831.445 634.615 830.404 638.286Q829.363 641.956 828.232 645.599Q827.101 649.243 825.881 652.857Q824.661 656.472 823.353 660.056Q822.045 663.639 820.649 667.19Q819.254 670.74 817.772 674.256Q816.289 677.771 814.722 681.249Q813.154 684.727 811.501 688.165Q809.848 691.604 808.112 695Q806.375 698.397 804.556 701.751Q802.737 705.104 800.836 708.411Q798.935 711.719 796.954 714.979Q794.972 718.239 792.912 721.45Q790.851 724.66 788.712 727.819Q786.573 730.978 784.358 734.084Q782.142 737.19 779.851 740.24Q777.375 743.536 774.818 746.769Q772.261 750.003 769.626 753.173Q766.991 756.344 764.279 759.448Q761.566 762.552 758.779 765.589Q755.991 768.626 753.13 771.594Q750.269 774.562 747.335 777.458Q744.402 780.354 741.398 783.178Q738.395 786.002 735.323 788.751Q732.251 791.5 729.112 794.172Q725.974 796.845 722.771 799.44Q719.568 802.035 716.302 804.551Q713.036 807.066 709.709 809.501Q706.382 811.935 702.997 814.288Q699.611 816.64 696.169 818.908Q692.727 821.176 689.23 823.36Q685.734 825.543 682.184 827.64Q678.635 829.736 675.035 831.745Q671.435 833.754 667.787 835.674Q664.139 837.594 660.445 839.424Q656.751 841.254 653.014 842.992Q649.276 844.731 645.496 846.377Q641.717 848.024 637.898 849.577Q634.08 851.13 630.224 852.589Q626.369 854.047 622.478 855.411Q618.588 856.775 614.666 858.043Q610.743 859.311 606.791 860.482Q602.838 861.653 598.858 862.727Q594.878 863.801 590.873 864.776Q586.867 865.752 582.839 866.629Q578.811 867.507 574.763 868.285Q570.715 869.063 566.649 869.741Q562.583 870.42 558.501 870.998Q535.876 873.945 513.062 874.257C512.804 853.217 512.909 832.141 512.988 811.099C523.221 810.914 534.251 808.321 544.267 806.285Q546.84 805.779 549.402 805.226Q551.965 804.672 554.517 804.072Q557.069 803.471 559.61 802.824Q562.15 802.176 564.679 801.482Q567.207 800.788 569.722 800.047Q572.237 799.307 574.738 798.52Q577.239 797.733 579.725 796.9Q582.211 796.067 584.681 795.188Q587.151 794.31 589.605 793.386Q592.058 792.462 594.495 791.493Q596.931 790.524 599.349 789.51Q601.767 788.497 604.165 787.438Q606.564 786.38 608.943 785.278Q611.322 784.176 613.68 783.03Q616.038 781.884 618.375 780.695Q620.712 779.506 623.026 778.274Q625.34 777.042 627.631 775.768Q629.923 774.494 632.19 773.177Q634.457 771.861 636.7 770.503Q638.943 769.145 641.16 767.746Q643.377 766.347 645.568 764.907Q647.76 763.467 649.924 761.987Q652.088 760.507 654.224 758.988Q656.361 757.468 658.469 755.91Q660.578 754.351 662.657 752.754Q664.736 751.157 666.785 749.521Q668.834 747.886 670.853 746.213Q672.872 744.541 674.86 742.831Q676.847 741.121 678.803 739.375Q680.759 737.629 682.682 735.847Q684.606 734.065 686.496 732.249Q688.386 730.432 690.242 728.58C736.073 682.493 767.152 624.966 774.286 559.822C775.563 548.166 775.749 536.451 775.701 524.735C775.52 480.313 762.904 433.721 741.147 395.009C733.42 381.259 724.251 368.478 714.874 355.825C705.157 342.714 694.582 329.149 682.995 317.662C679.657 314.652 676.911 310.789 674.115 307.279C683.725 302.099 694.235 296.681 704.518 293.086Z"/>
	<path fill="#970600" d="M704.518 293.086C708.63 295.761 712.786 298.382 716.721 301.313C709.134 304.644 701.933 308.691 694.492 312.315C690.77 314.127 686.495 315.529 682.995 317.662C679.657 314.652 676.911 310.789 674.115 307.279C683.725 302.099 694.235 296.681 704.518 293.086Z"/>
</svg>
